<?xml version="1.0" encoding="utf-8"?>
<svg xmlns="http://www.w3.org/2000/svg" xmlns:xlink="http://www.w3.org/1999/xlink" width="600" height="400" viewBox="0 0 2400 1600">
<defs>
  <clipPath id="clip590">
    <rect x="0" y="0" width="2400" height="1600"/>
  </clipPath>
</defs>
<path clip-path="url(#clip590)" d="M0 1600 L2400 1600 L2400 0 L0 0  Z" fill="#ffffff" fill-rule="evenodd" fill-opacity="1"/>
<defs>
  <clipPath id="clip591">
    <rect x="156" y="47" width="2197" height="1440"/>
  </clipPath>
</defs>
<path clip-path="url(#clip590)" d="M186.274 1486.45 L2352.76 1486.45 L2352.76 47.2441 L186.274 47.2441  Z" fill="#ffffff" fill-rule="evenodd" fill-opacity="1"/>
<defs>
  <clipPath id="clip592">
    <rect x="186" y="47" width="2167" height="1440"/>
  </clipPath>
</defs>
<polyline clip-path="url(#clip592)" style="stroke:#000000; stroke-linecap:round; stroke-linejoin:round; stroke-width:2; stroke-opacity:0.1; fill:none" points="247.59,1486.45 247.59,47.2441 "/>
<polyline clip-path="url(#clip592)" style="stroke:#000000; stroke-linecap:round; stroke-linejoin:round; stroke-width:2; stroke-opacity:0.1; fill:none" points="758.552,1486.45 758.552,47.2441 "/>
<polyline clip-path="url(#clip592)" style="stroke:#000000; stroke-linecap:round; stroke-linejoin:round; stroke-width:2; stroke-opacity:0.1; fill:none" points="1269.51,1486.45 1269.51,47.2441 "/>
<polyline clip-path="url(#clip592)" style="stroke:#000000; stroke-linecap:round; stroke-linejoin:round; stroke-width:2; stroke-opacity:0.1; fill:none" points="1780.48,1486.45 1780.48,47.2441 "/>
<polyline clip-path="url(#clip592)" style="stroke:#000000; stroke-linecap:round; stroke-linejoin:round; stroke-width:2; stroke-opacity:0.1; fill:none" points="2291.44,1486.45 2291.44,47.2441 "/>
<polyline clip-path="url(#clip592)" style="stroke:#000000; stroke-linecap:round; stroke-linejoin:round; stroke-width:2; stroke-opacity:0.1; fill:none" points="186.274,1445.72 2352.76,1445.72 "/>
<polyline clip-path="url(#clip592)" style="stroke:#000000; stroke-linecap:round; stroke-linejoin:round; stroke-width:2; stroke-opacity:0.1; fill:none" points="186.274,1106.28 2352.76,1106.28 "/>
<polyline clip-path="url(#clip592)" style="stroke:#000000; stroke-linecap:round; stroke-linejoin:round; stroke-width:2; stroke-opacity:0.1; fill:none" points="186.274,766.846 2352.76,766.846 "/>
<polyline clip-path="url(#clip592)" style="stroke:#000000; stroke-linecap:round; stroke-linejoin:round; stroke-width:2; stroke-opacity:0.1; fill:none" points="186.274,427.411 2352.76,427.411 "/>
<polyline clip-path="url(#clip592)" style="stroke:#000000; stroke-linecap:round; stroke-linejoin:round; stroke-width:2; stroke-opacity:0.1; fill:none" points="186.274,87.9763 2352.76,87.9763 "/>
<polyline clip-path="url(#clip590)" style="stroke:#000000; stroke-linecap:round; stroke-linejoin:round; stroke-width:4; stroke-opacity:1; fill:none" points="186.274,1486.45 2352.76,1486.45 "/>
<polyline clip-path="url(#clip590)" style="stroke:#000000; stroke-linecap:round; stroke-linejoin:round; stroke-width:4; stroke-opacity:1; fill:none" points="247.59,1486.45 247.59,1467.55 "/>
<polyline clip-path="url(#clip590)" style="stroke:#000000; stroke-linecap:round; stroke-linejoin:round; stroke-width:4; stroke-opacity:1; fill:none" points="758.552,1486.45 758.552,1467.55 "/>
<polyline clip-path="url(#clip590)" style="stroke:#000000; stroke-linecap:round; stroke-linejoin:round; stroke-width:4; stroke-opacity:1; fill:none" points="1269.51,1486.45 1269.51,1467.55 "/>
<polyline clip-path="url(#clip590)" style="stroke:#000000; stroke-linecap:round; stroke-linejoin:round; stroke-width:4; stroke-opacity:1; fill:none" points="1780.48,1486.45 1780.48,1467.55 "/>
<polyline clip-path="url(#clip590)" style="stroke:#000000; stroke-linecap:round; stroke-linejoin:round; stroke-width:4; stroke-opacity:1; fill:none" points="2291.44,1486.45 2291.44,1467.55 "/>
<path clip-path="url(#clip590)" d="M209.893 1517.37 Q206.282 1517.37 204.453 1520.93 Q202.648 1524.47 202.648 1531.6 Q202.648 1538.71 204.453 1542.27 Q206.282 1545.82 209.893 1545.82 Q213.527 1545.82 215.333 1542.27 Q217.161 1538.71 217.161 1531.6 Q217.161 1524.47 215.333 1520.93 Q213.527 1517.37 209.893 1517.37 M209.893 1513.66 Q215.703 1513.66 218.759 1518.27 Q221.837 1522.85 221.837 1531.6 Q221.837 1540.33 218.759 1544.94 Q215.703 1549.52 209.893 1549.52 Q204.083 1549.52 201.004 1544.94 Q197.949 1540.33 197.949 1531.6 Q197.949 1522.85 201.004 1518.27 Q204.083 1513.66 209.893 1513.66 Z" fill="#000000" fill-rule="nonzero" fill-opacity="1" /><path clip-path="url(#clip590)" d="M230.055 1542.97 L234.939 1542.97 L234.939 1548.85 L230.055 1548.85 L230.055 1542.97 Z" fill="#000000" fill-rule="nonzero" fill-opacity="1" /><path clip-path="url(#clip590)" d="M255.124 1517.37 Q251.513 1517.37 249.684 1520.93 Q247.879 1524.47 247.879 1531.6 Q247.879 1538.71 249.684 1542.27 Q251.513 1545.82 255.124 1545.82 Q258.758 1545.82 260.564 1542.27 Q262.393 1538.71 262.393 1531.6 Q262.393 1524.47 260.564 1520.93 Q258.758 1517.37 255.124 1517.37 M255.124 1513.66 Q260.934 1513.66 263.99 1518.27 Q267.069 1522.85 267.069 1531.6 Q267.069 1540.33 263.99 1544.94 Q260.934 1549.52 255.124 1549.52 Q249.314 1549.52 246.235 1544.94 Q243.18 1540.33 243.18 1531.6 Q243.18 1522.85 246.235 1518.27 Q249.314 1513.66 255.124 1513.66 Z" fill="#000000" fill-rule="nonzero" fill-opacity="1" /><path clip-path="url(#clip590)" d="M285.286 1517.37 Q281.675 1517.37 279.846 1520.93 Q278.041 1524.47 278.041 1531.6 Q278.041 1538.71 279.846 1542.27 Q281.675 1545.82 285.286 1545.82 Q288.92 1545.82 290.726 1542.27 Q292.555 1538.71 292.555 1531.6 Q292.555 1524.47 290.726 1520.93 Q288.92 1517.37 285.286 1517.37 M285.286 1513.66 Q291.096 1513.66 294.152 1518.27 Q297.23 1522.85 297.23 1531.6 Q297.23 1540.33 294.152 1544.94 Q291.096 1549.52 285.286 1549.52 Q279.476 1549.52 276.397 1544.94 Q273.342 1540.33 273.342 1531.6 Q273.342 1522.85 276.397 1518.27 Q279.476 1513.66 285.286 1513.66 Z" fill="#000000" fill-rule="nonzero" fill-opacity="1" /><path clip-path="url(#clip590)" d="M721.353 1517.37 Q717.742 1517.37 715.914 1520.93 Q714.108 1524.47 714.108 1531.6 Q714.108 1538.71 715.914 1542.27 Q717.742 1545.82 721.353 1545.82 Q724.988 1545.82 726.793 1542.27 Q728.622 1538.71 728.622 1531.6 Q728.622 1524.47 726.793 1520.93 Q724.988 1517.37 721.353 1517.37 M721.353 1513.66 Q727.164 1513.66 730.219 1518.27 Q733.298 1522.85 733.298 1531.6 Q733.298 1540.33 730.219 1544.94 Q727.164 1549.52 721.353 1549.52 Q715.543 1549.52 712.465 1544.94 Q709.409 1540.33 709.409 1531.6 Q709.409 1522.85 712.465 1518.27 Q715.543 1513.66 721.353 1513.66 Z" fill="#000000" fill-rule="nonzero" fill-opacity="1" /><path clip-path="url(#clip590)" d="M741.515 1542.97 L746.4 1542.97 L746.4 1548.85 L741.515 1548.85 L741.515 1542.97 Z" fill="#000000" fill-rule="nonzero" fill-opacity="1" /><path clip-path="url(#clip590)" d="M760.612 1544.91 L776.932 1544.91 L776.932 1548.85 L754.987 1548.85 L754.987 1544.91 Q757.649 1542.16 762.233 1537.53 Q766.839 1532.88 768.02 1531.53 Q770.265 1529.01 771.145 1527.27 Q772.048 1525.51 772.048 1523.82 Q772.048 1521.07 770.103 1519.33 Q768.182 1517.6 765.08 1517.6 Q762.881 1517.6 760.427 1518.36 Q757.997 1519.13 755.219 1520.68 L755.219 1515.95 Q758.043 1514.82 760.497 1514.24 Q762.95 1513.66 764.987 1513.66 Q770.358 1513.66 773.552 1516.35 Q776.747 1519.03 776.747 1523.52 Q776.747 1525.65 775.936 1527.57 Q775.149 1529.47 773.043 1532.07 Q772.464 1532.74 769.362 1535.95 Q766.261 1539.15 760.612 1544.91 Z" fill="#000000" fill-rule="nonzero" fill-opacity="1" /><path clip-path="url(#clip590)" d="M786.793 1514.29 L805.149 1514.29 L805.149 1518.22 L791.075 1518.22 L791.075 1526.7 Q792.094 1526.35 793.112 1526.19 Q794.131 1526 795.149 1526 Q800.936 1526 804.316 1529.17 Q807.695 1532.34 807.695 1537.76 Q807.695 1543.34 804.223 1546.44 Q800.751 1549.52 794.432 1549.52 Q792.256 1549.52 789.987 1549.15 Q787.742 1548.78 785.335 1548.04 L785.335 1543.34 Q787.418 1544.47 789.64 1545.03 Q791.862 1545.58 794.339 1545.58 Q798.344 1545.58 800.682 1543.48 Q803.02 1541.37 803.02 1537.76 Q803.02 1534.15 800.682 1532.04 Q798.344 1529.94 794.339 1529.94 Q792.464 1529.94 790.589 1530.35 Q788.737 1530.77 786.793 1531.65 L786.793 1514.29 Z" fill="#000000" fill-rule="nonzero" fill-opacity="1" /><path clip-path="url(#clip590)" d="M1231.82 1517.37 Q1228.21 1517.37 1226.38 1520.93 Q1224.57 1524.47 1224.57 1531.6 Q1224.57 1538.71 1226.38 1542.27 Q1228.21 1545.82 1231.82 1545.82 Q1235.45 1545.82 1237.26 1542.27 Q1239.09 1538.71 1239.09 1531.6 Q1239.09 1524.47 1237.26 1520.93 Q1235.45 1517.37 1231.82 1517.37 M1231.82 1513.66 Q1237.63 1513.66 1240.68 1518.27 Q1243.76 1522.85 1243.76 1531.6 Q1243.76 1540.33 1240.68 1544.94 Q1237.63 1549.52 1231.82 1549.52 Q1226.01 1549.52 1222.93 1544.94 Q1219.87 1540.33 1219.87 1531.6 Q1219.87 1522.85 1222.93 1518.27 Q1226.01 1513.66 1231.82 1513.66 Z" fill="#000000" fill-rule="nonzero" fill-opacity="1" /><path clip-path="url(#clip590)" d="M1251.98 1542.97 L1256.86 1542.97 L1256.86 1548.85 L1251.98 1548.85 L1251.98 1542.97 Z" fill="#000000" fill-rule="nonzero" fill-opacity="1" /><path clip-path="url(#clip590)" d="M1267.1 1514.29 L1285.45 1514.29 L1285.45 1518.22 L1271.38 1518.22 L1271.38 1526.7 Q1272.4 1526.35 1273.42 1526.19 Q1274.43 1526 1275.45 1526 Q1281.24 1526 1284.62 1529.17 Q1288 1532.34 1288 1537.76 Q1288 1543.34 1284.53 1546.44 Q1281.05 1549.52 1274.73 1549.52 Q1272.56 1549.52 1270.29 1549.15 Q1268.05 1548.78 1265.64 1548.04 L1265.64 1543.34 Q1267.72 1544.47 1269.94 1545.03 Q1272.17 1545.58 1274.64 1545.58 Q1278.65 1545.58 1280.98 1543.48 Q1283.32 1541.37 1283.32 1537.76 Q1283.32 1534.15 1280.98 1532.04 Q1278.65 1529.94 1274.64 1529.94 Q1272.77 1529.94 1270.89 1530.35 Q1269.04 1530.77 1267.1 1531.65 L1267.1 1514.29 Z" fill="#000000" fill-rule="nonzero" fill-opacity="1" /><path clip-path="url(#clip590)" d="M1307.21 1517.37 Q1303.6 1517.37 1301.77 1520.93 Q1299.97 1524.47 1299.97 1531.6 Q1299.97 1538.71 1301.77 1542.27 Q1303.6 1545.82 1307.21 1545.82 Q1310.85 1545.82 1312.65 1542.27 Q1314.48 1538.71 1314.48 1531.6 Q1314.48 1524.47 1312.65 1520.93 Q1310.85 1517.37 1307.21 1517.37 M1307.21 1513.66 Q1313.02 1513.66 1316.08 1518.27 Q1319.16 1522.85 1319.16 1531.6 Q1319.16 1540.33 1316.08 1544.94 Q1313.02 1549.52 1307.21 1549.52 Q1301.4 1549.52 1298.32 1544.94 Q1295.27 1540.33 1295.27 1531.6 Q1295.27 1522.85 1298.32 1518.27 Q1301.4 1513.66 1307.21 1513.66 Z" fill="#000000" fill-rule="nonzero" fill-opacity="1" /><path clip-path="url(#clip590)" d="M1743.28 1517.37 Q1739.67 1517.37 1737.84 1520.93 Q1736.03 1524.47 1736.03 1531.6 Q1736.03 1538.71 1737.84 1542.27 Q1739.67 1545.82 1743.28 1545.82 Q1746.91 1545.82 1748.72 1542.27 Q1750.55 1538.71 1750.55 1531.6 Q1750.55 1524.47 1748.72 1520.93 Q1746.91 1517.37 1743.28 1517.37 M1743.28 1513.66 Q1749.09 1513.66 1752.14 1518.27 Q1755.22 1522.85 1755.22 1531.6 Q1755.22 1540.33 1752.14 1544.94 Q1749.09 1549.52 1743.28 1549.52 Q1737.47 1549.52 1734.39 1544.94 Q1731.33 1540.33 1731.33 1531.6 Q1731.33 1522.85 1734.39 1518.27 Q1737.47 1513.66 1743.28 1513.66 Z" fill="#000000" fill-rule="nonzero" fill-opacity="1" /><path clip-path="url(#clip590)" d="M1763.44 1542.97 L1768.32 1542.97 L1768.32 1548.85 L1763.44 1548.85 L1763.44 1542.97 Z" fill="#000000" fill-rule="nonzero" fill-opacity="1" /><path clip-path="url(#clip590)" d="M1777.33 1514.29 L1799.55 1514.29 L1799.55 1516.28 L1787.01 1548.85 L1782.12 1548.85 L1793.93 1518.22 L1777.33 1518.22 L1777.33 1514.29 Z" fill="#000000" fill-rule="nonzero" fill-opacity="1" /><path clip-path="url(#clip590)" d="M1808.72 1514.29 L1827.07 1514.29 L1827.07 1518.22 L1813 1518.22 L1813 1526.7 Q1814.02 1526.35 1815.04 1526.19 Q1816.06 1526 1817.07 1526 Q1822.86 1526 1826.24 1529.17 Q1829.62 1532.34 1829.62 1537.76 Q1829.62 1543.34 1826.15 1546.44 Q1822.68 1549.52 1816.36 1549.52 Q1814.18 1549.52 1811.91 1549.15 Q1809.67 1548.78 1807.26 1548.04 L1807.26 1543.34 Q1809.34 1544.47 1811.57 1545.03 Q1813.79 1545.58 1816.26 1545.58 Q1820.27 1545.58 1822.61 1543.48 Q1824.95 1541.37 1824.95 1537.76 Q1824.95 1534.15 1822.61 1532.04 Q1820.27 1529.94 1816.26 1529.94 Q1814.39 1529.94 1812.51 1530.35 Q1810.66 1530.77 1808.72 1531.65 L1808.72 1514.29 Z" fill="#000000" fill-rule="nonzero" fill-opacity="1" /><path clip-path="url(#clip590)" d="M2243.51 1544.91 L2251.15 1544.91 L2251.15 1518.55 L2242.84 1520.21 L2242.84 1515.95 L2251.1 1514.29 L2255.78 1514.29 L2255.78 1544.91 L2263.42 1544.91 L2263.42 1548.85 L2243.51 1548.85 L2243.51 1544.91 Z" fill="#000000" fill-rule="nonzero" fill-opacity="1" /><path clip-path="url(#clip590)" d="M2272.86 1542.97 L2277.75 1542.97 L2277.75 1548.85 L2272.86 1548.85 L2272.86 1542.97 Z" fill="#000000" fill-rule="nonzero" fill-opacity="1" /><path clip-path="url(#clip590)" d="M2297.93 1517.37 Q2294.32 1517.37 2292.49 1520.93 Q2290.69 1524.47 2290.69 1531.6 Q2290.69 1538.71 2292.49 1542.27 Q2294.32 1545.82 2297.93 1545.82 Q2301.57 1545.82 2303.37 1542.27 Q2305.2 1538.71 2305.2 1531.6 Q2305.2 1524.47 2303.37 1520.93 Q2301.57 1517.37 2297.93 1517.37 M2297.93 1513.66 Q2303.74 1513.66 2306.8 1518.27 Q2309.88 1522.85 2309.88 1531.6 Q2309.88 1540.33 2306.8 1544.94 Q2303.74 1549.52 2297.93 1549.52 Q2292.12 1549.52 2289.04 1544.94 Q2285.99 1540.33 2285.99 1531.6 Q2285.99 1522.85 2289.04 1518.27 Q2292.12 1513.66 2297.93 1513.66 Z" fill="#000000" fill-rule="nonzero" fill-opacity="1" /><path clip-path="url(#clip590)" d="M2328.1 1517.37 Q2324.48 1517.37 2322.66 1520.93 Q2320.85 1524.47 2320.85 1531.6 Q2320.85 1538.71 2322.66 1542.27 Q2324.48 1545.82 2328.1 1545.82 Q2331.73 1545.82 2333.54 1542.27 Q2335.36 1538.71 2335.36 1531.6 Q2335.36 1524.47 2333.54 1520.93 Q2331.73 1517.37 2328.1 1517.37 M2328.1 1513.66 Q2333.91 1513.66 2336.96 1518.27 Q2340.04 1522.85 2340.04 1531.6 Q2340.04 1540.33 2336.96 1544.94 Q2333.91 1549.52 2328.1 1549.52 Q2322.29 1549.52 2319.21 1544.94 Q2316.15 1540.33 2316.15 1531.6 Q2316.15 1522.85 2319.21 1518.27 Q2322.29 1513.66 2328.1 1513.66 Z" fill="#000000" fill-rule="nonzero" fill-opacity="1" /><polyline clip-path="url(#clip590)" style="stroke:#000000; stroke-linecap:round; stroke-linejoin:round; stroke-width:4; stroke-opacity:1; fill:none" points="186.274,1486.45 186.274,47.2441 "/>
<polyline clip-path="url(#clip590)" style="stroke:#000000; stroke-linecap:round; stroke-linejoin:round; stroke-width:4; stroke-opacity:1; fill:none" points="186.274,1445.72 205.172,1445.72 "/>
<polyline clip-path="url(#clip590)" style="stroke:#000000; stroke-linecap:round; stroke-linejoin:round; stroke-width:4; stroke-opacity:1; fill:none" points="186.274,1106.28 205.172,1106.28 "/>
<polyline clip-path="url(#clip590)" style="stroke:#000000; stroke-linecap:round; stroke-linejoin:round; stroke-width:4; stroke-opacity:1; fill:none" points="186.274,766.846 205.172,766.846 "/>
<polyline clip-path="url(#clip590)" style="stroke:#000000; stroke-linecap:round; stroke-linejoin:round; stroke-width:4; stroke-opacity:1; fill:none" points="186.274,427.411 205.172,427.411 "/>
<polyline clip-path="url(#clip590)" style="stroke:#000000; stroke-linecap:round; stroke-linejoin:round; stroke-width:4; stroke-opacity:1; fill:none" points="186.274,87.9763 205.172,87.9763 "/>
<path clip-path="url(#clip590)" d="M62.9365 1431.51 Q59.3254 1431.51 57.4967 1435.08 Q55.6912 1438.62 55.6912 1445.75 Q55.6912 1452.86 57.4967 1456.42 Q59.3254 1459.96 62.9365 1459.96 Q66.5707 1459.96 68.3763 1456.42 Q70.205 1452.86 70.205 1445.75 Q70.205 1438.62 68.3763 1435.08 Q66.5707 1431.51 62.9365 1431.51 M62.9365 1427.81 Q68.7467 1427.81 71.8022 1432.42 Q74.8809 1437 74.8809 1445.75 Q74.8809 1454.48 71.8022 1459.08 Q68.7467 1463.67 62.9365 1463.67 Q57.1264 1463.67 54.0477 1459.08 Q50.9921 1454.48 50.9921 1445.75 Q50.9921 1437 54.0477 1432.42 Q57.1264 1427.81 62.9365 1427.81 Z" fill="#000000" fill-rule="nonzero" fill-opacity="1" /><path clip-path="url(#clip590)" d="M83.0984 1457.12 L87.9827 1457.12 L87.9827 1463 L83.0984 1463 L83.0984 1457.12 Z" fill="#000000" fill-rule="nonzero" fill-opacity="1" /><path clip-path="url(#clip590)" d="M108.168 1431.51 Q104.557 1431.51 102.728 1435.08 Q100.922 1438.62 100.922 1445.75 Q100.922 1452.86 102.728 1456.42 Q104.557 1459.96 108.168 1459.96 Q111.802 1459.96 113.608 1456.42 Q115.436 1452.86 115.436 1445.75 Q115.436 1438.62 113.608 1435.08 Q111.802 1431.51 108.168 1431.51 M108.168 1427.81 Q113.978 1427.81 117.033 1432.42 Q120.112 1437 120.112 1445.75 Q120.112 1454.48 117.033 1459.08 Q113.978 1463.67 108.168 1463.67 Q102.358 1463.67 99.2789 1459.08 Q96.2234 1454.48 96.2234 1445.75 Q96.2234 1437 99.2789 1432.42 Q102.358 1427.81 108.168 1427.81 Z" fill="#000000" fill-rule="nonzero" fill-opacity="1" /><path clip-path="url(#clip590)" d="M138.33 1431.51 Q134.719 1431.51 132.89 1435.08 Q131.084 1438.62 131.084 1445.75 Q131.084 1452.86 132.89 1456.42 Q134.719 1459.96 138.33 1459.96 Q141.964 1459.96 143.769 1456.42 Q145.598 1452.86 145.598 1445.75 Q145.598 1438.62 143.769 1435.08 Q141.964 1431.51 138.33 1431.51 M138.33 1427.81 Q144.14 1427.81 147.195 1432.42 Q150.274 1437 150.274 1445.75 Q150.274 1454.48 147.195 1459.08 Q144.14 1463.67 138.33 1463.67 Q132.519 1463.67 129.441 1459.08 Q126.385 1454.48 126.385 1445.75 Q126.385 1437 129.441 1432.42 Q132.519 1427.81 138.33 1427.81 Z" fill="#000000" fill-rule="nonzero" fill-opacity="1" /><path clip-path="url(#clip590)" d="M63.9319 1092.08 Q60.3208 1092.08 58.4921 1095.64 Q56.6865 1099.19 56.6865 1106.32 Q56.6865 1113.42 58.4921 1116.99 Q60.3208 1120.53 63.9319 1120.53 Q67.5661 1120.53 69.3717 1116.99 Q71.2004 1113.42 71.2004 1106.32 Q71.2004 1099.19 69.3717 1095.64 Q67.5661 1092.08 63.9319 1092.08 M63.9319 1088.38 Q69.742 1088.38 72.7976 1092.98 Q75.8763 1097.57 75.8763 1106.32 Q75.8763 1115.04 72.7976 1119.65 Q69.742 1124.23 63.9319 1124.23 Q58.1217 1124.23 55.043 1119.65 Q51.9875 1115.04 51.9875 1106.32 Q51.9875 1097.57 55.043 1092.98 Q58.1217 1088.38 63.9319 1088.38 Z" fill="#000000" fill-rule="nonzero" fill-opacity="1" /><path clip-path="url(#clip590)" d="M84.0938 1117.68 L88.978 1117.68 L88.978 1123.56 L84.0938 1123.56 L84.0938 1117.68 Z" fill="#000000" fill-rule="nonzero" fill-opacity="1" /><path clip-path="url(#clip590)" d="M103.191 1119.63 L119.51 1119.63 L119.51 1123.56 L97.566 1123.56 L97.566 1119.63 Q100.228 1116.87 104.811 1112.24 Q109.418 1107.59 110.598 1106.25 Q112.844 1103.72 113.723 1101.99 Q114.626 1100.23 114.626 1098.54 Q114.626 1095.78 112.682 1094.05 Q110.76 1092.31 107.658 1092.31 Q105.459 1092.31 103.006 1093.07 Q100.575 1093.84 97.7974 1095.39 L97.7974 1090.67 Q100.621 1089.53 103.075 1088.95 Q105.529 1088.38 107.566 1088.38 Q112.936 1088.38 116.131 1091.06 Q119.325 1093.75 119.325 1098.24 Q119.325 1100.37 118.515 1102.29 Q117.728 1104.19 115.621 1106.78 Q115.043 1107.45 111.941 1110.67 Q108.839 1113.86 103.191 1119.63 Z" fill="#000000" fill-rule="nonzero" fill-opacity="1" /><path clip-path="url(#clip590)" d="M129.371 1089 L147.728 1089 L147.728 1092.94 L133.654 1092.94 L133.654 1101.41 Q134.672 1101.06 135.691 1100.9 Q136.709 1100.71 137.728 1100.71 Q143.515 1100.71 146.894 1103.89 Q150.274 1107.06 150.274 1112.47 Q150.274 1118.05 146.802 1121.15 Q143.33 1124.23 137.01 1124.23 Q134.834 1124.23 132.566 1123.86 Q130.32 1123.49 127.913 1122.75 L127.913 1118.05 Q129.996 1119.19 132.219 1119.74 Q134.441 1120.3 136.918 1120.3 Q140.922 1120.3 143.26 1118.19 Q145.598 1116.08 145.598 1112.47 Q145.598 1108.86 143.26 1106.76 Q140.922 1104.65 136.918 1104.65 Q135.043 1104.65 133.168 1105.07 Q131.316 1105.48 129.371 1106.36 L129.371 1089 Z" fill="#000000" fill-rule="nonzero" fill-opacity="1" /><path clip-path="url(#clip590)" d="M62.9365 752.645 Q59.3254 752.645 57.4967 756.209 Q55.6912 759.751 55.6912 766.881 Q55.6912 773.987 57.4967 777.552 Q59.3254 781.094 62.9365 781.094 Q66.5707 781.094 68.3763 777.552 Q70.205 773.987 70.205 766.881 Q70.205 759.751 68.3763 756.209 Q66.5707 752.645 62.9365 752.645 M62.9365 748.941 Q68.7467 748.941 71.8022 753.547 Q74.8809 758.131 74.8809 766.881 Q74.8809 775.608 71.8022 780.214 Q68.7467 784.797 62.9365 784.797 Q57.1264 784.797 54.0477 780.214 Q50.9921 775.608 50.9921 766.881 Q50.9921 758.131 54.0477 753.547 Q57.1264 748.941 62.9365 748.941 Z" fill="#000000" fill-rule="nonzero" fill-opacity="1" /><path clip-path="url(#clip590)" d="M83.0984 778.246 L87.9827 778.246 L87.9827 784.126 L83.0984 784.126 L83.0984 778.246 Z" fill="#000000" fill-rule="nonzero" fill-opacity="1" /><path clip-path="url(#clip590)" d="M98.2141 749.566 L116.57 749.566 L116.57 753.501 L102.496 753.501 L102.496 761.973 Q103.515 761.626 104.534 761.464 Q105.552 761.279 106.571 761.279 Q112.358 761.279 115.737 764.45 Q119.117 767.621 119.117 773.038 Q119.117 778.617 115.645 781.719 Q112.172 784.797 105.853 784.797 Q103.677 784.797 101.409 784.427 Q99.1632 784.057 96.7558 783.316 L96.7558 778.617 Q98.8391 779.751 101.061 780.307 Q103.284 780.862 105.76 780.862 Q109.765 780.862 112.103 778.756 Q114.441 776.649 114.441 773.038 Q114.441 769.427 112.103 767.321 Q109.765 765.214 105.76 765.214 Q103.885 765.214 102.01 765.631 Q100.159 766.047 98.2141 766.927 L98.2141 749.566 Z" fill="#000000" fill-rule="nonzero" fill-opacity="1" /><path clip-path="url(#clip590)" d="M138.33 752.645 Q134.719 752.645 132.89 756.209 Q131.084 759.751 131.084 766.881 Q131.084 773.987 132.89 777.552 Q134.719 781.094 138.33 781.094 Q141.964 781.094 143.769 777.552 Q145.598 773.987 145.598 766.881 Q145.598 759.751 143.769 756.209 Q141.964 752.645 138.33 752.645 M138.33 748.941 Q144.14 748.941 147.195 753.547 Q150.274 758.131 150.274 766.881 Q150.274 775.608 147.195 780.214 Q144.14 784.797 138.33 784.797 Q132.519 784.797 129.441 780.214 Q126.385 775.608 126.385 766.881 Q126.385 758.131 129.441 753.547 Q132.519 748.941 138.33 748.941 Z" fill="#000000" fill-rule="nonzero" fill-opacity="1" /><path clip-path="url(#clip590)" d="M63.9319 413.21 Q60.3208 413.21 58.4921 416.775 Q56.6865 420.316 56.6865 427.446 Q56.6865 434.552 58.4921 438.117 Q60.3208 441.659 63.9319 441.659 Q67.5661 441.659 69.3717 438.117 Q71.2004 434.552 71.2004 427.446 Q71.2004 420.316 69.3717 416.775 Q67.5661 413.21 63.9319 413.21 M63.9319 409.506 Q69.742 409.506 72.7976 414.113 Q75.8763 418.696 75.8763 427.446 Q75.8763 436.173 72.7976 440.779 Q69.742 445.362 63.9319 445.362 Q58.1217 445.362 55.043 440.779 Q51.9875 436.173 51.9875 427.446 Q51.9875 418.696 55.043 414.113 Q58.1217 409.506 63.9319 409.506 Z" fill="#000000" fill-rule="nonzero" fill-opacity="1" /><path clip-path="url(#clip590)" d="M84.0938 438.812 L88.978 438.812 L88.978 444.691 L84.0938 444.691 L84.0938 438.812 Z" fill="#000000" fill-rule="nonzero" fill-opacity="1" /><path clip-path="url(#clip590)" d="M97.9826 410.131 L120.205 410.131 L120.205 412.122 L107.658 444.691 L102.774 444.691 L114.58 414.066 L97.9826 414.066 L97.9826 410.131 Z" fill="#000000" fill-rule="nonzero" fill-opacity="1" /><path clip-path="url(#clip590)" d="M129.371 410.131 L147.728 410.131 L147.728 414.066 L133.654 414.066 L133.654 422.538 Q134.672 422.191 135.691 422.029 Q136.709 421.844 137.728 421.844 Q143.515 421.844 146.894 425.015 Q150.274 428.187 150.274 433.603 Q150.274 439.182 146.802 442.284 Q143.33 445.362 137.01 445.362 Q134.834 445.362 132.566 444.992 Q130.32 444.622 127.913 443.881 L127.913 439.182 Q129.996 440.316 132.219 440.872 Q134.441 441.427 136.918 441.427 Q140.922 441.427 143.26 439.321 Q145.598 437.214 145.598 433.603 Q145.598 429.992 143.26 427.886 Q140.922 425.779 136.918 425.779 Q135.043 425.779 133.168 426.196 Q131.316 426.613 129.371 427.492 L129.371 410.131 Z" fill="#000000" fill-rule="nonzero" fill-opacity="1" /><path clip-path="url(#clip590)" d="M53.7467 101.321 L61.3856 101.321 L61.3856 74.9555 L53.0754 76.6222 L53.0754 72.3629 L61.3393 70.6963 L66.0152 70.6963 L66.0152 101.321 L73.654 101.321 L73.654 105.256 L53.7467 105.256 L53.7467 101.321 Z" fill="#000000" fill-rule="nonzero" fill-opacity="1" /><path clip-path="url(#clip590)" d="M83.0984 99.3767 L87.9827 99.3767 L87.9827 105.256 L83.0984 105.256 L83.0984 99.3767 Z" fill="#000000" fill-rule="nonzero" fill-opacity="1" /><path clip-path="url(#clip590)" d="M108.168 73.775 Q104.557 73.775 102.728 77.3398 Q100.922 80.8814 100.922 88.011 Q100.922 95.1174 102.728 98.6822 Q104.557 102.224 108.168 102.224 Q111.802 102.224 113.608 98.6822 Q115.436 95.1174 115.436 88.011 Q115.436 80.8814 113.608 77.3398 Q111.802 73.775 108.168 73.775 M108.168 70.0713 Q113.978 70.0713 117.033 74.6777 Q120.112 79.261 120.112 88.011 Q120.112 96.7378 117.033 101.344 Q113.978 105.928 108.168 105.928 Q102.358 105.928 99.2789 101.344 Q96.2234 96.7378 96.2234 88.011 Q96.2234 79.261 99.2789 74.6777 Q102.358 70.0713 108.168 70.0713 Z" fill="#000000" fill-rule="nonzero" fill-opacity="1" /><path clip-path="url(#clip590)" d="M138.33 73.775 Q134.719 73.775 132.89 77.3398 Q131.084 80.8814 131.084 88.011 Q131.084 95.1174 132.89 98.6822 Q134.719 102.224 138.33 102.224 Q141.964 102.224 143.769 98.6822 Q145.598 95.1174 145.598 88.011 Q145.598 80.8814 143.769 77.3398 Q141.964 73.775 138.33 73.775 M138.33 70.0713 Q144.14 70.0713 147.195 74.6777 Q150.274 79.261 150.274 88.011 Q150.274 96.7378 147.195 101.344 Q144.14 105.928 138.33 105.928 Q132.519 105.928 129.441 101.344 Q126.385 96.7378 126.385 88.011 Q126.385 79.261 129.441 74.6777 Q132.519 70.0713 138.33 70.0713 Z" fill="#000000" fill-rule="nonzero" fill-opacity="1" /><polyline clip-path="url(#clip592)" style="stroke:#009af9; stroke-linecap:round; stroke-linejoin:round; stroke-width:4; stroke-opacity:1; fill:none" points="247.59,1445.72 249.633,1445.72 251.677,1445.72 253.721,1445.72 255.765,1445.72 257.809,1445.72 259.853,1445.72 261.896,1445.72 263.94,1445.72 265.984,1445.72 268.028,1445.72 270.072,1445.72 272.116,1445.72 274.16,1445.72 276.203,1445.72 278.247,1445.72 280.291,1445.72 282.335,1445.72 284.379,1445.72 286.423,1445.72 288.467,1445.72 290.51,1445.72 292.554,1445.72 294.598,1445.72 296.642,1445.72 298.686,1445.72 300.73,1445.72 302.774,1445.72 304.817,1445.72 306.861,1445.72 308.905,1445.72 310.949,1445.72 312.993,1445.72 315.037,1445.72 317.08,1445.72 319.124,1445.72 321.168,1445.72 323.212,1445.72 325.256,1445.72 327.3,1445.72 329.344,1445.72 331.387,1445.72 333.431,1445.72 335.475,1445.72 337.519,1445.72 339.563,1445.72 341.607,1445.72 343.651,1445.72 345.694,1445.72 347.738,1445.72 349.782,1445.72 351.826,1445.72 353.87,1445.72 355.914,1445.72 357.957,1445.72 360.001,1445.72 362.045,1445.72 364.089,1445.72 366.133,1445.72 368.177,1445.72 370.221,1445.72 372.264,1445.72 374.308,1445.72 376.352,1445.72 378.396,1445.72 380.44,1445.72 382.484,1445.72 384.528,1445.72 386.571,1445.72 388.615,1445.72 390.659,1445.72 392.703,1445.72 394.747,1445.72 396.791,1445.72 398.834,1445.72 400.878,1445.72 402.922,1445.72 404.966,1445.72 407.01,1445.72 409.054,1445.72 411.098,1445.72 413.141,1445.72 415.185,1445.72 417.229,1445.72 419.273,1445.72 421.317,1445.72 423.361,1445.72 425.405,1445.72 427.448,1445.72 429.492,1445.72 431.536,1445.72 433.58,1445.72 435.624,1445.72 437.668,1445.72 439.712,1445.72 441.755,1445.72 443.799,1445.72 445.843,1445.72 447.887,1445.72 449.931,1445.72 451.975,1445.72 454.018,1445.72 456.062,1445.72 458.106,1445.72 460.15,1445.72 462.194,1445.72 464.238,1445.72 466.282,1445.72 468.325,1445.72 470.369,1445.72 472.413,1445.72 474.457,1445.72 476.501,1445.72 478.545,1445.72 480.589,1445.72 482.632,1445.72 484.676,1445.72 486.72,1445.72 488.764,1445.72 490.808,1445.72 492.852,1445.72 494.895,1445.72 496.939,1445.72 498.983,1445.72 501.027,1445.72 503.071,1445.72 505.115,1445.72 507.159,1445.72 509.202,1445.72 511.246,1445.72 513.29,1445.72 515.334,1445.72 517.378,1445.72 519.422,1445.72 521.466,1445.72 523.509,1445.72 525.553,1445.72 527.597,1445.72 529.641,1445.72 531.685,1445.72 533.729,1445.72 535.772,1445.72 537.816,1445.72 539.86,1445.72 541.904,1445.72 543.948,1445.72 545.992,1445.72 548.036,1445.72 550.079,1445.72 552.123,1445.72 554.167,1445.72 556.211,1445.72 558.255,1445.72 560.299,1445.72 562.343,1445.72 564.386,1445.72 566.43,1445.72 568.474,1445.72 570.518,1445.72 572.562,1445.72 574.606,1445.72 576.65,1445.72 578.693,1445.72 580.737,1445.72 582.781,1445.72 584.825,1445.72 586.869,1445.72 588.913,1445.72 590.956,1445.72 593,1445.72 595.044,1445.72 597.088,1445.72 599.132,1445.72 601.176,1445.72 603.22,1445.72 605.263,1445.72 607.307,1445.72 609.351,1445.72 611.395,1445.72 613.439,1445.72 615.483,1445.72 617.527,1445.72 619.57,1445.72 621.614,1445.72 623.658,1445.72 625.702,1445.72 627.746,1445.72 629.79,1445.72 631.833,1445.72 633.877,1445.72 635.921,1445.72 637.965,1445.72 640.009,1445.72 642.053,1445.72 644.097,1445.72 646.14,1445.72 648.184,1445.72 650.228,1445.72 652.272,1445.72 654.316,1445.72 656.36,1445.72 658.404,1445.72 660.447,1445.72 662.491,1445.72 664.535,1445.72 666.579,1445.72 668.623,1445.72 670.667,1445.72 672.711,1445.72 674.754,1445.72 676.798,1445.72 678.842,1445.72 680.886,1445.72 682.93,1445.72 684.974,1445.72 687.017,1445.72 689.061,1445.72 691.105,1445.72 693.149,1445.72 695.193,1445.72 697.237,1445.72 699.281,1445.72 701.324,1445.72 703.368,1445.72 705.412,1445.72 707.456,1445.72 709.5,1445.72 711.544,1445.72 713.588,1445.72 715.631,1445.72 717.675,1445.72 719.719,1445.72 721.763,1445.72 723.807,1445.72 725.851,1445.72 727.894,1445.72 729.938,1445.72 731.982,1445.72 734.026,1445.72 736.07,1445.72 738.114,1445.72 740.158,1445.72 742.201,1445.72 744.245,1445.72 746.289,1445.72 748.333,1445.72 750.377,1445.72 752.421,1445.72 754.465,1445.72 756.508,1445.72 758.552,1445.72 760.596,1445.72 762.64,1445.72 764.684,1445.72 766.728,1445.72 768.771,1445.72 770.815,1445.72 772.859,1445.72 774.903,1445.72 776.947,1445.72 778.991,1445.72 781.035,1445.72 783.078,1445.72 785.122,1445.72 787.166,1445.72 789.21,1445.72 791.254,1445.72 793.298,1445.72 795.342,1445.72 797.385,1445.72 799.429,1445.72 801.473,1445.72 803.517,1445.72 805.561,1445.72 807.605,1445.72 809.649,1445.72 811.692,1445.72 813.736,1445.72 815.78,1445.72 817.824,1445.72 819.868,1445.72 821.912,1445.72 823.955,1445.72 825.999,1445.72 828.043,1445.72 830.087,1445.72 832.131,1445.72 834.175,1445.72 836.219,1445.72 838.262,1445.72 840.306,1445.72 842.35,1445.72 844.394,1445.72 846.438,1445.72 848.482,1445.72 850.526,1445.72 852.569,1445.72 854.613,1445.72 856.657,1445.72 858.701,1445.72 860.745,1445.72 862.789,1445.72 864.832,1445.72 866.876,1445.72 868.92,1445.72 870.964,1445.72 873.008,1445.72 875.052,1445.72 877.096,1445.72 879.139,1445.72 881.183,1445.72 883.227,1445.72 885.271,1445.72 887.315,1445.72 889.359,1445.72 891.403,1445.72 893.446,1445.72 895.49,1445.72 897.534,1445.72 899.578,1445.72 901.622,1445.72 903.666,1445.72 905.71,1445.72 907.753,1445.72 909.797,1445.72 911.841,1445.72 913.885,1445.72 915.929,1445.72 917.973,1445.72 920.016,1445.72 922.06,1445.72 924.104,1445.72 926.148,1445.72 928.192,1445.72 930.236,1445.72 932.28,1445.72 934.323,1445.72 936.367,1445.72 938.411,1445.72 940.455,1445.72 942.499,1445.72 944.543,1445.72 946.587,1445.72 948.63,1445.72 950.674,1445.72 952.718,1445.72 954.762,1445.72 956.806,1445.72 958.85,1445.72 960.893,1445.72 962.937,1445.72 964.981,1445.72 967.025,1445.72 969.069,1445.72 971.113,1445.72 973.157,1445.72 975.2,1445.72 977.244,1445.72 979.288,1445.72 981.332,1445.72 983.376,1445.72 985.42,1445.72 987.464,1445.72 989.507,1445.72 991.551,1445.72 993.595,1445.72 995.639,1445.72 997.683,1445.72 999.727,1445.72 1001.77,1445.72 1003.81,1445.72 1005.86,1445.72 1007.9,1445.72 1009.95,1445.72 1011.99,1445.72 1014.03,1445.72 1016.08,1445.72 1018.12,1445.72 1020.17,1445.72 1022.21,1445.72 1024.26,1445.72 1026.31,1445.72 1028.37,1445.72 1030.43,1445.72 1032.51,1445.72 1034.59,1445.72 1036.69,1445.72 1038.81,1445.72 1040.94,1445.72 1043.09,1445.72 1045.25,1445.72 1047.43,1445.72 1049.62,1445.72 1051.84,1445.72 1054.07,1445.72 1056.32,1445.72 1058.58,1445.72 1060.87,1445.72 1063.17,1445.72 1065.49,1445.72 1067.83,1445.72 1070.19,1445.72 1072.57,1445.72 1074.97,1445.72 1077.39,1445.72 1079.84,1445.72 1082.3,1445.72 1084.78,1445.72 1087.29,1445.72 1089.82,1445.72 1092.37,1445.72 1094.95,1445.72 1097.55,1445.72 1100.18,1445.72 1102.83,1445.72 1105.51,1445.72 1108.21,1445.72 1110.94,1445.72 1113.69,1445.72 1116.48,1445.72 1119.29,1445.72 1122.14,1445.72 1125.01,1445.72 1127.91,1445.72 1130.85,1445.72 1133.81,1445.72 1136.81,1445.72 1139.85,1445.72 1142.92,1445.72 1146.02,1445.72 1149.16,1445.72 1152.34,1445.72 1155.55,1445.72 1158.81,1445.72 1162.1,1445.72 1165.44,1445.72 1168.82,1445.72 1172.24,1445.72 1175.71,1445.72 1179.23,1445.72 1182.79,1445.72 1186.4,1445.72 1190.07,1445.72 1193.78,1445.72 1197.55,1445.72 1201.38,1445.72 1205.26,1445.72 1209.2,1445.72 1213.2,1445.72 1217.27,1445.72 1221.4,1445.72 1225.6,1445.72 1229.86,1445.72 1234.2,1445.72 1238.62,1445.72 1243.11,1445.72 1247.68,1445.72 1252.33,1445.72 1257.05,1445.72 1261.86,1445.72 1266.72,1445.72 1271.63,1445.72 1276.54,1445.72 1281.43,1445.72 1286.3,1445.72 1291.15,1445.72 1295.98,1445.72 1300.8,1445.72 1305.6,1445.72 1310.4,1445.72 1315.19,1445.72 1319.98,1445.72 1324.77,1445.72 1329.56,1445.72 1334.34,1445.72 1339.13,1445.72 1343.92,1445.72 1348.71,1445.72 1353.5,1445.72 1358.29,1445.72 1363.08,1445.72 1367.87,1445.72 1372.65,1445.72 1377.44,1445.72 1382.23,1445.72 1387.02,1445.72 1391.81,1445.72 1396.6,1445.72 1401.39,1445.72 1406.18,1445.72 1410.97,1445.72 1415.76,1445.72 1420.55,1445.72 1425.33,1445.72 1430.12,1445.72 1434.91,1445.72 1439.7,1445.72 1444.49,1445.72 1449.31,1445.72 1454.28,1445.72 1459.7,1445.72 1460.47,1445.72 1461.33,1445.72 1462.24,1445.72 1463.2,1445.72 1464.18,1445.72 1465.16,1445.72 1466.15,1445.72 1467.13,1445.72 1468.12,1445.72 1469.1,1445.72 1470.08,1445.72 1471.05,1445.72 1472.03,1445.72 1473,1445.72 1473.97,1445.72 1474.94,1445.72 1475.91,1445.72 1476.87,1445.72 1477.84,1445.72 1478.8,1445.72 1479.76,1445.72 1480.73,1445.72 1481.69,1445.72 1482.65,1445.72 1483.61,1445.72 1484.57,1445.72 1485.54,1445.72 1486.5,1445.72 1487.46,1445.72 1488.42,1445.72 1489.38,1445.72 1490.35,1445.72 1491.31,1445.72 1492.27,1445.72 1493.23,1445.72 1494.2,1445.72 1495.16,1445.72 1496.12,1445.72 1497.09,1445.72 1498.05,1445.72 1499.01,1445.72 1499.98,1445.72 1500.94,1445.72 1501.91,1445.72 1502.87,1445.72 1503.83,1445.72 1504.8,1445.72 1505.76,1445.72 1506.73,1445.72 1507.69,1445.72 1508.66,1445.72 1509.62,1445.72 1510.58,1445.72 1511.55,1445.72 1512.51,1445.72 1513.48,1445.72 1514.44,1445.72 1515.41,1445.72 1516.37,1445.72 1517.33,1445.72 1518.3,1445.72 1519.26,1445.72 1520.23,1445.72 1521.19,1445.72 1522.16,1445.72 1523.12,1445.72 1524.08,1445.72 1525.05,1445.72 1526.01,1445.72 1526.98,1445.72 1527.94,1445.72 1528.9,1445.72 1529.87,1445.72 1530.83,1445.72 1531.8,1445.72 1532.76,1445.72 1533.72,1445.72 1534.69,1445.72 1535.65,1445.72 1536.62,1445.72 1537.58,1445.72 1538.55,1445.72 1539.51,1445.72 1540.47,1445.72 1541.44,1445.72 1542.4,1445.72 1543.37,1445.72 1544.33,1445.72 1545.29,1445.72 1546.26,1445.72 1547.22,1445.72 1548.19,1445.72 1549.15,1445.72 1550.12,1445.72 1551.08,1445.72 1552.04,1445.72 1553.01,1445.72 1553.97,1445.72 1554.94,1445.72 1555.9,1445.72 1556.86,1445.72 1557.83,1445.72 1558.79,1445.72 1559.76,1445.72 1560.72,1445.72 1561.69,1445.72 1562.65,1445.72 1563.61,1445.72 1564.58,1445.72 1565.54,1445.72 1566.51,1445.72 1567.47,1445.72 1568.43,1445.72 1569.4,1445.72 1570.36,1445.72 1571.33,1445.72 1572.29,1445.72 1573.25,1445.72 1574.22,1445.72 1575.18,1445.72 1576.15,1445.72 1577.11,1445.72 1578.08,1445.72 1579.04,1445.72 1580,1445.72 1580.97,1445.72 1581.93,1445.72 1582.9,1445.72 1583.86,1445.72 1584.82,1445.72 1585.79,1445.72 1586.75,1445.72 1587.72,1445.72 1588.68,1445.72 1589.64,1445.72 1590.61,1445.72 1591.57,1445.72 1592.54,1445.72 1593.5,1445.72 1594.46,1445.72 1595.43,1445.72 1596.39,1445.72 1597.36,1445.72 1598.32,1445.72 1599.29,1445.72 1600.25,1445.72 1601.21,1445.72 1602.18,1445.72 1603.14,1445.72 1604.11,1445.72 1605.07,1445.72 1606.03,1445.72 1607,1445.72 1607.96,1445.72 1608.93,1445.72 1609.89,1445.72 1610.85,1445.72 1611.82,1445.72 1612.78,1445.72 1613.75,1445.72 1614.71,1445.72 1615.67,1445.72 1616.64,1445.72 1617.6,1445.72 1618.57,1445.72 1619.53,1445.72 1620.49,1445.72 1621.46,1445.72 1622.42,1445.72 1623.39,1445.72 1624.35,1445.72 1625.31,1445.72 1626.28,1445.72 1627.26,1445.72 1628.33,1445.72 1629.68,1445.72 1631.4,1445.72 1633.35,1445.72 1635.37,1445.72 1637.41,1445.72 1639.45,1445.72 1641.5,1445.72 1643.54,1445.72 1645.58,1445.72 1647.63,1445.72 1649.67,1445.72 1651.72,1445.72 1653.76,1445.72 1655.8,1445.72 1657.85,1445.72 1659.89,1445.72 1661.93,1445.72 1663.98,1445.72 1666.02,1445.72 1668.07,1445.72 1670.11,1445.72 1672.15,1445.72 1674.2,1445.72 1676.24,1445.72 1678.29,1445.72 1680.33,1445.72 1682.37,1445.72 1684.42,1445.72 1686.46,1445.72 1688.5,1445.72 1690.55,1445.72 1692.59,1445.72 1694.64,1445.72 1696.68,1445.72 1698.72,1445.72 1700.77,1445.72 1702.81,1445.72 1704.86,1445.72 1706.9,1445.72 1708.94,1445.72 1710.99,1445.72 1713.03,1445.72 1715.07,1445.72 1717.12,1445.72 1719.16,1445.72 1721.21,1445.72 1723.25,1445.72 1725.29,1445.72 1727.34,1445.72 1729.38,1445.72 1731.43,1445.72 1733.47,1445.72 1735.51,1445.72 1737.56,1445.72 1739.6,1445.72 1741.64,1445.72 1743.69,1445.72 1745.73,1445.72 1747.78,1445.72 1749.82,1445.72 1751.86,1445.72 1753.91,1445.72 1755.95,1445.72 1758,1445.72 1760.04,1445.72 1762.08,1445.72 1764.13,1445.72 1766.17,1445.72 1768.21,1445.72 1770.26,1445.72 1772.3,1445.72 1774.35,1445.72 1776.39,1445.72 1778.43,1445.72 1780.48,1445.72 1782.52,1445.72 1784.57,1445.72 1786.61,1445.72 1788.65,1445.72 1790.7,1445.72 1792.74,1445.72 1794.78,1445.72 1796.83,1445.72 1798.87,1445.72 1800.92,1445.72 1802.96,1445.72 1805,1445.72 1807.05,1445.72 1809.09,1445.72 1811.14,1445.72 1813.18,1445.72 1815.22,1445.72 1817.27,1445.72 1819.31,1445.72 1821.35,1445.72 1823.4,1445.72 1825.44,1445.72 1827.49,1445.72 1829.53,1445.72 1831.57,1445.72 1833.62,1445.72 1835.66,1445.72 1837.71,1445.72 1839.75,1445.72 1841.79,1445.72 1843.84,1445.72 1845.88,1445.72 1847.92,1445.72 1849.97,1445.72 1852.01,1445.72 1854.06,1445.72 1856.1,1445.72 1858.14,1445.72 1860.19,1445.72 1862.23,1445.72 1864.28,1445.72 1866.32,1445.72 1868.36,1445.72 1870.41,1445.72 1872.45,1445.72 1874.49,1445.72 1876.54,1445.72 1878.58,1445.72 1880.63,1445.72 1882.67,1445.72 1884.71,1445.72 1886.76,1445.72 1888.8,1445.72 1890.85,1445.72 1892.89,1445.72 1894.93,1445.72 1896.98,1445.72 1899.02,1445.72 1901.06,1445.72 1903.11,1445.72 1905.15,1445.72 1907.2,1445.72 1909.24,1445.72 1911.28,1445.72 1913.33,1445.72 1915.37,1445.72 1917.42,1445.72 1919.46,1445.72 1921.5,1445.72 1923.55,1445.72 1925.59,1445.72 1927.63,1445.72 1929.68,1445.72 1931.72,1445.72 1933.77,1445.72 1935.81,1445.72 1937.85,1445.72 1939.9,1445.72 1941.94,1445.72 1943.99,1445.72 1946.03,1445.72 1948.07,1445.72 1950.12,1445.72 1952.16,1445.72 1954.2,1445.72 1956.25,1445.72 1958.29,1445.72 1960.34,1445.72 1962.38,1445.72 1964.42,1445.72 1966.47,1445.72 1968.51,1445.72 1970.56,1445.72 1972.6,1445.72 1974.64,1445.72 1976.69,1445.72 1978.73,1445.72 1980.78,1445.72 1982.82,1445.72 1984.86,1445.72 1986.91,1445.72 1988.95,1445.72 1990.99,1445.72 1993.04,1445.72 1995.08,1445.72 1997.13,1445.72 1999.17,1445.72 2001.21,1445.72 2003.26,1445.72 2005.3,1445.72 2007.35,1445.72 2009.39,1445.72 2011.43,1445.72 2013.48,1445.72 2015.52,1445.72 2017.56,1445.72 2019.61,1445.72 2021.65,1445.72 2023.7,1445.72 2025.74,1445.72 2027.78,1445.72 2029.83,1445.72 2031.87,1445.72 2033.92,1445.72 2035.96,1445.72 2038,1445.72 2040.05,1445.72 2042.09,1445.72 2044.13,1445.72 2046.18,1445.72 2048.22,1445.72 2050.27,1445.72 2052.31,1445.72 2054.35,1445.72 2056.4,1445.72 2058.44,1445.72 2060.49,1445.72 2062.53,1445.72 2064.57,1445.72 2066.62,1445.72 2068.66,1445.72 2070.7,1445.72 2072.75,1445.72 2074.79,1445.72 2076.84,1445.72 2078.88,1445.72 2080.92,1445.72 2082.97,1445.72 2085.01,1445.72 2087.06,1445.72 2089.1,1445.72 2091.14,1445.72 2093.19,1445.72 2095.23,1445.72 2097.27,1445.72 2099.32,1445.72 2101.36,1445.72 2103.41,1445.72 2105.45,1445.72 2107.49,1445.72 2109.54,1445.72 2111.58,1445.72 2113.63,1445.72 2115.67,1445.72 2117.71,1445.72 2119.76,1445.72 2121.8,1445.72 2123.84,1445.72 2125.89,1445.72 2127.93,1445.72 2129.98,1445.72 2132.02,1445.72 2134.06,1445.72 2136.11,1445.72 2138.15,1445.72 2140.2,1445.72 2142.24,1445.72 2144.28,1445.72 2146.33,1445.72 2148.37,1445.72 2150.41,1445.72 2152.46,1445.72 2154.5,1445.72 2156.55,1445.72 2158.59,1445.72 2160.63,1445.72 2162.68,1445.72 2164.72,1445.72 2166.77,1445.72 2168.81,1445.72 2170.85,1445.72 2172.9,1445.72 2174.94,1445.72 2176.98,1445.72 2179.03,1445.72 2181.07,1445.72 2183.12,1445.72 2185.16,1445.72 2187.2,1445.72 2189.25,1445.72 2191.29,1445.72 2193.34,1445.72 2195.38,1445.72 2197.42,1445.72 2199.47,1445.72 2201.51,1445.72 2203.55,1445.72 2205.6,1445.72 2207.64,1445.72 2209.69,1445.72 2211.73,1445.72 2213.77,1445.72 2215.82,1445.72 2217.86,1445.72 2219.91,1445.72 2221.95,1445.72 2223.99,1445.72 2226.04,1445.72 2228.08,1445.72 2230.12,1445.72 2232.17,1445.72 2234.21,1445.72 2236.26,1445.72 2238.3,1445.72 2240.34,1445.72 2242.39,1445.72 2244.43,1445.72 2246.48,1445.72 2248.52,1445.72 2250.56,1445.72 2252.61,1445.72 2254.65,1445.72 2256.69,1445.72 2258.74,1445.72 2260.78,1445.72 2262.83,1445.72 2264.87,1445.72 2266.91,1445.72 2268.96,1445.72 2271,1445.72 2273.05,1445.72 2275.09,1445.72 2277.13,1445.72 2279.18,1445.72 2281.22,1445.72 2283.26,1445.72 2285.31,1445.72 2287.35,1445.72 2289.4,1445.72 2291.44,1445.72 "/>
<path clip-path="url(#clip590)" d="M2011.46 198.898 L2280.54 198.898 L2280.54 95.2176 L2011.46 95.2176  Z" fill="#ffffff" fill-rule="evenodd" fill-opacity="1"/>
<polyline clip-path="url(#clip590)" style="stroke:#000000; stroke-linecap:round; stroke-linejoin:round; stroke-width:4; stroke-opacity:1; fill:none" points="2011.46,198.898 2280.54,198.898 2280.54,95.2176 2011.46,95.2176 2011.46,198.898 "/>
<polyline clip-path="url(#clip590)" style="stroke:#009af9; stroke-linecap:round; stroke-linejoin:round; stroke-width:4; stroke-opacity:1; fill:none" points="2035.53,147.058 2179.97,147.058 "/>
<path clip-path="url(#clip590)" d="M2217.88 166.745 Q2216.07 171.375 2214.36 172.787 Q2212.65 174.199 2209.78 174.199 L2206.38 174.199 L2206.38 170.634 L2208.88 170.634 Q2210.63 170.634 2211.61 169.8 Q2212.58 168.967 2213.76 165.865 L2214.52 163.921 L2204.04 138.412 L2208.55 138.412 L2216.65 158.689 L2224.76 138.412 L2229.27 138.412 L2217.88 166.745 Z" fill="#000000" fill-rule="nonzero" fill-opacity="1" /><path clip-path="url(#clip590)" d="M2236.56 160.402 L2244.2 160.402 L2244.2 134.037 L2235.89 135.703 L2235.89 131.444 L2244.15 129.778 L2248.83 129.778 L2248.83 160.402 L2256.47 160.402 L2256.47 164.338 L2236.56 164.338 L2236.56 160.402 Z" fill="#000000" fill-rule="nonzero" fill-opacity="1" /></svg>
