<?xml version="1.0" encoding="utf-8"?>
<svg xmlns="http://www.w3.org/2000/svg" xmlns:xlink="http://www.w3.org/1999/xlink" width="600" height="400" viewBox="0 0 2400 1600">
<defs>
  <clipPath id="clip560">
    <rect x="0" y="0" width="2400" height="1600"/>
  </clipPath>
</defs>
<path clip-path="url(#clip560)" d="M0 1600 L2400 1600 L2400 0 L0 0  Z" fill="#ffffff" fill-rule="evenodd" fill-opacity="1"/>
<defs>
  <clipPath id="clip561">
    <rect x="156" y="47" width="2197" height="1440"/>
  </clipPath>
</defs>
<path clip-path="url(#clip560)" d="M156.598 1486.45 L2352.76 1486.45 L2352.76 47.2441 L156.598 47.2441  Z" fill="#ffffff" fill-rule="evenodd" fill-opacity="1"/>
<polyline clip-path="url(#clip561)" style="stroke:#000000; stroke-linecap:round; stroke-linejoin:round; stroke-width:2; stroke-opacity:0.1; fill:none" points="217.717,1486.45 217.717,47.2441 "/>
<polyline clip-path="url(#clip561)" style="stroke:#000000; stroke-linecap:round; stroke-linejoin:round; stroke-width:2; stroke-opacity:0.1; fill:none" points="736.197,1486.45 736.197,47.2441 "/>
<polyline clip-path="url(#clip561)" style="stroke:#000000; stroke-linecap:round; stroke-linejoin:round; stroke-width:2; stroke-opacity:0.1; fill:none" points="1254.68,1486.45 1254.68,47.2441 "/>
<polyline clip-path="url(#clip561)" style="stroke:#000000; stroke-linecap:round; stroke-linejoin:round; stroke-width:2; stroke-opacity:0.1; fill:none" points="1773.16,1486.45 1773.16,47.2441 "/>
<polyline clip-path="url(#clip561)" style="stroke:#000000; stroke-linecap:round; stroke-linejoin:round; stroke-width:2; stroke-opacity:0.1; fill:none" points="2291.64,1486.45 2291.64,47.2441 "/>
<polyline clip-path="url(#clip561)" style="stroke:#000000; stroke-linecap:round; stroke-linejoin:round; stroke-width:2; stroke-opacity:0.1; fill:none" points="156.598,1341.3 2352.76,1341.3 "/>
<polyline clip-path="url(#clip561)" style="stroke:#000000; stroke-linecap:round; stroke-linejoin:round; stroke-width:2; stroke-opacity:0.1; fill:none" points="156.598,1062.78 2352.76,1062.78 "/>
<polyline clip-path="url(#clip561)" style="stroke:#000000; stroke-linecap:round; stroke-linejoin:round; stroke-width:2; stroke-opacity:0.1; fill:none" points="156.598,784.254 2352.76,784.254 "/>
<polyline clip-path="url(#clip561)" style="stroke:#000000; stroke-linecap:round; stroke-linejoin:round; stroke-width:2; stroke-opacity:0.1; fill:none" points="156.598,505.729 2352.76,505.729 "/>
<polyline clip-path="url(#clip561)" style="stroke:#000000; stroke-linecap:round; stroke-linejoin:round; stroke-width:2; stroke-opacity:0.1; fill:none" points="156.598,227.204 2352.76,227.204 "/>
<polyline clip-path="url(#clip560)" style="stroke:#000000; stroke-linecap:round; stroke-linejoin:round; stroke-width:4; stroke-opacity:1; fill:none" points="156.598,1486.45 2352.76,1486.45 "/>
<polyline clip-path="url(#clip560)" style="stroke:#000000; stroke-linecap:round; stroke-linejoin:round; stroke-width:4; stroke-opacity:1; fill:none" points="217.717,1486.45 217.717,1467.55 "/>
<polyline clip-path="url(#clip560)" style="stroke:#000000; stroke-linecap:round; stroke-linejoin:round; stroke-width:4; stroke-opacity:1; fill:none" points="736.197,1486.45 736.197,1467.55 "/>
<polyline clip-path="url(#clip560)" style="stroke:#000000; stroke-linecap:round; stroke-linejoin:round; stroke-width:4; stroke-opacity:1; fill:none" points="1254.68,1486.45 1254.68,1467.55 "/>
<polyline clip-path="url(#clip560)" style="stroke:#000000; stroke-linecap:round; stroke-linejoin:round; stroke-width:4; stroke-opacity:1; fill:none" points="1773.16,1486.45 1773.16,1467.55 "/>
<polyline clip-path="url(#clip560)" style="stroke:#000000; stroke-linecap:round; stroke-linejoin:round; stroke-width:4; stroke-opacity:1; fill:none" points="2291.64,1486.45 2291.64,1467.55 "/>
<path clip-path="url(#clip560)" d="M180.02 1517.37 Q176.409 1517.37 174.58 1520.93 Q172.775 1524.47 172.775 1531.6 Q172.775 1538.71 174.58 1542.27 Q176.409 1545.82 180.02 1545.82 Q183.654 1545.82 185.46 1542.27 Q187.289 1538.71 187.289 1531.6 Q187.289 1524.47 185.46 1520.93 Q183.654 1517.37 180.02 1517.37 M180.02 1513.66 Q185.83 1513.66 188.886 1518.27 Q191.965 1522.85 191.965 1531.6 Q191.965 1540.33 188.886 1544.94 Q185.83 1549.52 180.02 1549.52 Q174.21 1549.52 171.131 1544.94 Q168.076 1540.33 168.076 1531.6 Q168.076 1522.85 171.131 1518.27 Q174.21 1513.66 180.02 1513.66 Z" fill="#000000" fill-rule="nonzero" fill-opacity="1" /><path clip-path="url(#clip560)" d="M200.182 1542.97 L205.066 1542.97 L205.066 1548.85 L200.182 1548.85 L200.182 1542.97 Z" fill="#000000" fill-rule="nonzero" fill-opacity="1" /><path clip-path="url(#clip560)" d="M225.251 1517.37 Q221.64 1517.37 219.812 1520.93 Q218.006 1524.47 218.006 1531.6 Q218.006 1538.71 219.812 1542.27 Q221.64 1545.82 225.251 1545.82 Q228.886 1545.82 230.691 1542.27 Q232.52 1538.71 232.52 1531.6 Q232.52 1524.47 230.691 1520.93 Q228.886 1517.37 225.251 1517.37 M225.251 1513.66 Q231.062 1513.66 234.117 1518.27 Q237.196 1522.85 237.196 1531.6 Q237.196 1540.33 234.117 1544.94 Q231.062 1549.52 225.251 1549.52 Q219.441 1549.52 216.363 1544.94 Q213.307 1540.33 213.307 1531.6 Q213.307 1522.85 216.363 1518.27 Q219.441 1513.66 225.251 1513.66 Z" fill="#000000" fill-rule="nonzero" fill-opacity="1" /><path clip-path="url(#clip560)" d="M255.413 1517.37 Q251.802 1517.37 249.973 1520.93 Q248.168 1524.47 248.168 1531.6 Q248.168 1538.71 249.973 1542.27 Q251.802 1545.82 255.413 1545.82 Q259.047 1545.82 260.853 1542.27 Q262.682 1538.71 262.682 1531.6 Q262.682 1524.47 260.853 1520.93 Q259.047 1517.37 255.413 1517.37 M255.413 1513.66 Q261.223 1513.66 264.279 1518.27 Q267.358 1522.85 267.358 1531.6 Q267.358 1540.33 264.279 1544.94 Q261.223 1549.52 255.413 1549.52 Q249.603 1549.52 246.524 1544.94 Q243.469 1540.33 243.469 1531.6 Q243.469 1522.85 246.524 1518.27 Q249.603 1513.66 255.413 1513.66 Z" fill="#000000" fill-rule="nonzero" fill-opacity="1" /><path clip-path="url(#clip560)" d="M698.998 1517.37 Q695.387 1517.37 693.558 1520.93 Q691.753 1524.47 691.753 1531.6 Q691.753 1538.71 693.558 1542.27 Q695.387 1545.82 698.998 1545.82 Q702.632 1545.82 704.438 1542.27 Q706.266 1538.71 706.266 1531.6 Q706.266 1524.47 704.438 1520.93 Q702.632 1517.37 698.998 1517.37 M698.998 1513.66 Q704.808 1513.66 707.864 1518.27 Q710.942 1522.85 710.942 1531.6 Q710.942 1540.33 707.864 1544.94 Q704.808 1549.52 698.998 1549.52 Q693.188 1549.52 690.109 1544.94 Q687.054 1540.33 687.054 1531.6 Q687.054 1522.85 690.109 1518.27 Q693.188 1513.66 698.998 1513.66 Z" fill="#000000" fill-rule="nonzero" fill-opacity="1" /><path clip-path="url(#clip560)" d="M719.16 1542.97 L724.044 1542.97 L724.044 1548.85 L719.16 1548.85 L719.16 1542.97 Z" fill="#000000" fill-rule="nonzero" fill-opacity="1" /><path clip-path="url(#clip560)" d="M738.257 1544.91 L754.576 1544.91 L754.576 1548.85 L732.632 1548.85 L732.632 1544.91 Q735.294 1542.16 739.877 1537.53 Q744.484 1532.88 745.664 1531.53 Q747.91 1529.01 748.789 1527.27 Q749.692 1525.51 749.692 1523.82 Q749.692 1521.07 747.748 1519.33 Q745.826 1517.6 742.725 1517.6 Q740.526 1517.6 738.072 1518.36 Q735.641 1519.13 732.864 1520.68 L732.864 1515.95 Q735.688 1514.82 738.141 1514.24 Q740.595 1513.66 742.632 1513.66 Q748.002 1513.66 751.197 1516.35 Q754.391 1519.03 754.391 1523.52 Q754.391 1525.65 753.581 1527.57 Q752.794 1529.47 750.688 1532.07 Q750.109 1532.74 747.007 1535.95 Q743.905 1539.15 738.257 1544.91 Z" fill="#000000" fill-rule="nonzero" fill-opacity="1" /><path clip-path="url(#clip560)" d="M764.437 1514.29 L782.794 1514.29 L782.794 1518.22 L768.72 1518.22 L768.72 1526.7 Q769.738 1526.35 770.757 1526.19 Q771.775 1526 772.794 1526 Q778.581 1526 781.961 1529.17 Q785.34 1532.34 785.34 1537.76 Q785.34 1543.34 781.868 1546.44 Q778.396 1549.52 772.076 1549.52 Q769.9 1549.52 767.632 1549.15 Q765.387 1548.78 762.979 1548.04 L762.979 1543.34 Q765.062 1544.47 767.285 1545.03 Q769.507 1545.58 771.984 1545.58 Q775.988 1545.58 778.326 1543.48 Q780.664 1541.37 780.664 1537.76 Q780.664 1534.15 778.326 1532.04 Q775.988 1529.94 771.984 1529.94 Q770.109 1529.94 768.234 1530.35 Q766.382 1530.77 764.437 1531.65 L764.437 1514.29 Z" fill="#000000" fill-rule="nonzero" fill-opacity="1" /><path clip-path="url(#clip560)" d="M1216.98 1517.37 Q1213.37 1517.37 1211.54 1520.93 Q1209.74 1524.47 1209.74 1531.6 Q1209.74 1538.71 1211.54 1542.27 Q1213.37 1545.82 1216.98 1545.82 Q1220.61 1545.82 1222.42 1542.27 Q1224.25 1538.71 1224.25 1531.6 Q1224.25 1524.47 1222.42 1520.93 Q1220.61 1517.37 1216.98 1517.37 M1216.98 1513.66 Q1222.79 1513.66 1225.85 1518.27 Q1228.92 1522.85 1228.92 1531.6 Q1228.92 1540.33 1225.85 1544.94 Q1222.79 1549.52 1216.98 1549.52 Q1211.17 1549.52 1208.09 1544.94 Q1205.04 1540.33 1205.04 1531.6 Q1205.04 1522.85 1208.09 1518.27 Q1211.17 1513.66 1216.98 1513.66 Z" fill="#000000" fill-rule="nonzero" fill-opacity="1" /><path clip-path="url(#clip560)" d="M1237.14 1542.97 L1242.03 1542.97 L1242.03 1548.85 L1237.14 1548.85 L1237.14 1542.97 Z" fill="#000000" fill-rule="nonzero" fill-opacity="1" /><path clip-path="url(#clip560)" d="M1252.26 1514.29 L1270.61 1514.29 L1270.61 1518.22 L1256.54 1518.22 L1256.54 1526.7 Q1257.56 1526.35 1258.58 1526.19 Q1259.6 1526 1260.61 1526 Q1266.4 1526 1269.78 1529.17 Q1273.16 1532.34 1273.16 1537.76 Q1273.16 1543.34 1269.69 1546.44 Q1266.22 1549.52 1259.9 1549.52 Q1257.72 1549.52 1255.45 1549.15 Q1253.21 1548.78 1250.8 1548.04 L1250.8 1543.34 Q1252.88 1544.47 1255.11 1545.03 Q1257.33 1545.58 1259.8 1545.58 Q1263.81 1545.58 1266.15 1543.48 Q1268.48 1541.37 1268.48 1537.76 Q1268.48 1534.15 1266.15 1532.04 Q1263.81 1529.94 1259.8 1529.94 Q1257.93 1529.94 1256.05 1530.35 Q1254.2 1530.77 1252.26 1531.65 L1252.26 1514.29 Z" fill="#000000" fill-rule="nonzero" fill-opacity="1" /><path clip-path="url(#clip560)" d="M1292.37 1517.37 Q1288.76 1517.37 1286.93 1520.93 Q1285.13 1524.47 1285.13 1531.6 Q1285.13 1538.71 1286.93 1542.27 Q1288.76 1545.82 1292.37 1545.82 Q1296.01 1545.82 1297.81 1542.27 Q1299.64 1538.71 1299.64 1531.6 Q1299.64 1524.47 1297.81 1520.93 Q1296.01 1517.37 1292.37 1517.37 M1292.37 1513.66 Q1298.18 1513.66 1301.24 1518.27 Q1304.32 1522.85 1304.32 1531.6 Q1304.32 1540.33 1301.24 1544.94 Q1298.18 1549.52 1292.37 1549.52 Q1286.56 1549.52 1283.48 1544.94 Q1280.43 1540.33 1280.43 1531.6 Q1280.43 1522.85 1283.48 1518.27 Q1286.56 1513.66 1292.37 1513.66 Z" fill="#000000" fill-rule="nonzero" fill-opacity="1" /><path clip-path="url(#clip560)" d="M1735.96 1517.37 Q1732.35 1517.37 1730.52 1520.93 Q1728.71 1524.47 1728.71 1531.6 Q1728.71 1538.71 1730.52 1542.27 Q1732.35 1545.82 1735.96 1545.82 Q1739.59 1545.82 1741.4 1542.27 Q1743.23 1538.71 1743.23 1531.6 Q1743.23 1524.47 1741.4 1520.93 Q1739.59 1517.37 1735.96 1517.37 M1735.96 1513.66 Q1741.77 1513.66 1744.82 1518.27 Q1747.9 1522.85 1747.9 1531.6 Q1747.9 1540.33 1744.82 1544.94 Q1741.77 1549.52 1735.96 1549.52 Q1730.15 1549.52 1727.07 1544.94 Q1724.01 1540.33 1724.01 1531.6 Q1724.01 1522.85 1727.07 1518.27 Q1730.15 1513.66 1735.96 1513.66 Z" fill="#000000" fill-rule="nonzero" fill-opacity="1" /><path clip-path="url(#clip560)" d="M1756.12 1542.97 L1761 1542.97 L1761 1548.85 L1756.12 1548.85 L1756.12 1542.97 Z" fill="#000000" fill-rule="nonzero" fill-opacity="1" /><path clip-path="url(#clip560)" d="M1770.01 1514.29 L1792.23 1514.29 L1792.23 1516.28 L1779.69 1548.85 L1774.8 1548.85 L1786.61 1518.22 L1770.01 1518.22 L1770.01 1514.29 Z" fill="#000000" fill-rule="nonzero" fill-opacity="1" /><path clip-path="url(#clip560)" d="M1801.4 1514.29 L1819.75 1514.29 L1819.75 1518.22 L1805.68 1518.22 L1805.68 1526.7 Q1806.7 1526.35 1807.72 1526.19 Q1808.74 1526 1809.75 1526 Q1815.54 1526 1818.92 1529.17 Q1822.3 1532.34 1822.3 1537.76 Q1822.3 1543.34 1818.83 1546.44 Q1815.36 1549.52 1809.04 1549.52 Q1806.86 1549.52 1804.59 1549.15 Q1802.35 1548.78 1799.94 1548.04 L1799.94 1543.34 Q1802.02 1544.47 1804.25 1545.03 Q1806.47 1545.58 1808.94 1545.58 Q1812.95 1545.58 1815.29 1543.48 Q1817.62 1541.37 1817.62 1537.76 Q1817.62 1534.15 1815.29 1532.04 Q1812.95 1529.94 1808.94 1529.94 Q1807.07 1529.94 1805.19 1530.35 Q1803.34 1530.77 1801.4 1531.65 L1801.4 1514.29 Z" fill="#000000" fill-rule="nonzero" fill-opacity="1" /><path clip-path="url(#clip560)" d="M2243.71 1544.91 L2251.35 1544.91 L2251.35 1518.55 L2243.04 1520.21 L2243.04 1515.95 L2251.3 1514.29 L2255.98 1514.29 L2255.98 1544.91 L2263.62 1544.91 L2263.62 1548.85 L2243.71 1548.85 L2243.71 1544.91 Z" fill="#000000" fill-rule="nonzero" fill-opacity="1" /><path clip-path="url(#clip560)" d="M2273.06 1542.97 L2277.95 1542.97 L2277.95 1548.85 L2273.06 1548.85 L2273.06 1542.97 Z" fill="#000000" fill-rule="nonzero" fill-opacity="1" /><path clip-path="url(#clip560)" d="M2298.13 1517.37 Q2294.52 1517.37 2292.69 1520.93 Q2290.89 1524.47 2290.89 1531.6 Q2290.89 1538.71 2292.69 1542.27 Q2294.52 1545.82 2298.13 1545.82 Q2301.76 1545.82 2303.57 1542.27 Q2305.4 1538.71 2305.4 1531.6 Q2305.4 1524.47 2303.57 1520.93 Q2301.76 1517.37 2298.13 1517.37 M2298.13 1513.66 Q2303.94 1513.66 2307 1518.27 Q2310.07 1522.85 2310.07 1531.6 Q2310.07 1540.33 2307 1544.94 Q2303.94 1549.52 2298.13 1549.52 Q2292.32 1549.52 2289.24 1544.94 Q2286.19 1540.33 2286.19 1531.6 Q2286.19 1522.85 2289.24 1518.27 Q2292.32 1513.66 2298.13 1513.66 Z" fill="#000000" fill-rule="nonzero" fill-opacity="1" /><path clip-path="url(#clip560)" d="M2328.29 1517.37 Q2324.68 1517.37 2322.85 1520.93 Q2321.05 1524.47 2321.05 1531.6 Q2321.05 1538.71 2322.85 1542.27 Q2324.68 1545.82 2328.29 1545.82 Q2331.93 1545.82 2333.73 1542.27 Q2335.56 1538.71 2335.56 1531.6 Q2335.56 1524.47 2333.73 1520.93 Q2331.93 1517.37 2328.29 1517.37 M2328.29 1513.66 Q2334.1 1513.66 2337.16 1518.27 Q2340.24 1522.85 2340.24 1531.6 Q2340.24 1540.33 2337.16 1544.94 Q2334.1 1549.52 2328.29 1549.52 Q2322.48 1549.52 2319.4 1544.94 Q2316.35 1540.33 2316.35 1531.6 Q2316.35 1522.85 2319.4 1518.27 Q2322.48 1513.66 2328.29 1513.66 Z" fill="#000000" fill-rule="nonzero" fill-opacity="1" /><polyline clip-path="url(#clip560)" style="stroke:#000000; stroke-linecap:round; stroke-linejoin:round; stroke-width:4; stroke-opacity:1; fill:none" points="156.598,1486.45 156.598,47.2441 "/>
<polyline clip-path="url(#clip560)" style="stroke:#000000; stroke-linecap:round; stroke-linejoin:round; stroke-width:4; stroke-opacity:1; fill:none" points="156.598,1341.3 175.496,1341.3 "/>
<polyline clip-path="url(#clip560)" style="stroke:#000000; stroke-linecap:round; stroke-linejoin:round; stroke-width:4; stroke-opacity:1; fill:none" points="156.598,1062.78 175.496,1062.78 "/>
<polyline clip-path="url(#clip560)" style="stroke:#000000; stroke-linecap:round; stroke-linejoin:round; stroke-width:4; stroke-opacity:1; fill:none" points="156.598,784.254 175.496,784.254 "/>
<polyline clip-path="url(#clip560)" style="stroke:#000000; stroke-linecap:round; stroke-linejoin:round; stroke-width:4; stroke-opacity:1; fill:none" points="156.598,505.729 175.496,505.729 "/>
<polyline clip-path="url(#clip560)" style="stroke:#000000; stroke-linecap:round; stroke-linejoin:round; stroke-width:4; stroke-opacity:1; fill:none" points="156.598,227.204 175.496,227.204 "/>
<path clip-path="url(#clip560)" d="M65.0198 1327.1 Q61.4087 1327.1 59.58 1330.67 Q57.7745 1334.21 57.7745 1341.34 Q57.7745 1348.44 59.58 1352.01 Q61.4087 1355.55 65.0198 1355.55 Q68.6541 1355.55 70.4596 1352.01 Q72.2883 1348.44 72.2883 1341.34 Q72.2883 1334.21 70.4596 1330.67 Q68.6541 1327.1 65.0198 1327.1 M65.0198 1323.4 Q70.83 1323.4 73.8855 1328 Q76.9642 1332.59 76.9642 1341.34 Q76.9642 1350.06 73.8855 1354.67 Q70.83 1359.25 65.0198 1359.25 Q59.2097 1359.25 56.131 1354.67 Q53.0754 1350.06 53.0754 1341.34 Q53.0754 1332.59 56.131 1328 Q59.2097 1323.4 65.0198 1323.4 Z" fill="#000000" fill-rule="nonzero" fill-opacity="1" /><path clip-path="url(#clip560)" d="M85.1818 1352.7 L90.066 1352.7 L90.066 1358.58 L85.1818 1358.58 L85.1818 1352.7 Z" fill="#000000" fill-rule="nonzero" fill-opacity="1" /><path clip-path="url(#clip560)" d="M104.279 1354.65 L120.598 1354.65 L120.598 1358.58 L98.6539 1358.58 L98.6539 1354.65 Q101.316 1351.89 105.899 1347.26 Q110.506 1342.61 111.686 1341.27 Q113.932 1338.75 114.811 1337.01 Q115.714 1335.25 115.714 1333.56 Q115.714 1330.81 113.77 1329.07 Q111.848 1327.33 108.746 1327.33 Q106.547 1327.33 104.094 1328.1 Q101.663 1328.86 98.8854 1330.41 L98.8854 1325.69 Q101.709 1324.56 104.163 1323.98 Q106.617 1323.4 108.654 1323.4 Q114.024 1323.4 117.219 1326.08 Q120.413 1328.77 120.413 1333.26 Q120.413 1335.39 119.603 1337.31 Q118.816 1339.21 116.709 1341.8 Q116.131 1342.47 113.029 1345.69 Q109.927 1348.88 104.279 1354.65 Z" fill="#000000" fill-rule="nonzero" fill-opacity="1" /><path clip-path="url(#clip560)" d="M62.9365 1048.58 Q59.3254 1048.58 57.4967 1052.14 Q55.6912 1055.68 55.6912 1062.81 Q55.6912 1069.92 57.4967 1073.48 Q59.3254 1077.03 62.9365 1077.03 Q66.5707 1077.03 68.3763 1073.48 Q70.205 1069.92 70.205 1062.81 Q70.205 1055.68 68.3763 1052.14 Q66.5707 1048.58 62.9365 1048.58 M62.9365 1044.87 Q68.7467 1044.87 71.8022 1049.48 Q74.8809 1054.06 74.8809 1062.81 Q74.8809 1071.54 71.8022 1076.15 Q68.7467 1080.73 62.9365 1080.73 Q57.1264 1080.73 54.0477 1076.15 Q50.9921 1071.54 50.9921 1062.81 Q50.9921 1054.06 54.0477 1049.48 Q57.1264 1044.87 62.9365 1044.87 Z" fill="#000000" fill-rule="nonzero" fill-opacity="1" /><path clip-path="url(#clip560)" d="M83.0984 1074.18 L87.9827 1074.18 L87.9827 1080.06 L83.0984 1080.06 L83.0984 1074.18 Z" fill="#000000" fill-rule="nonzero" fill-opacity="1" /><path clip-path="url(#clip560)" d="M111.015 1049.57 L99.2095 1068.02 L111.015 1068.02 L111.015 1049.57 M109.788 1045.5 L115.668 1045.5 L115.668 1068.02 L120.598 1068.02 L120.598 1071.91 L115.668 1071.91 L115.668 1080.06 L111.015 1080.06 L111.015 1071.91 L95.4132 1071.91 L95.4132 1067.4 L109.788 1045.5 Z" fill="#000000" fill-rule="nonzero" fill-opacity="1" /><path clip-path="url(#clip560)" d="M63.2606 770.052 Q59.6495 770.052 57.8208 773.617 Q56.0152 777.159 56.0152 784.289 Q56.0152 791.395 57.8208 794.96 Q59.6495 798.501 63.2606 798.501 Q66.8948 798.501 68.7004 794.96 Q70.5291 791.395 70.5291 784.289 Q70.5291 777.159 68.7004 773.617 Q66.8948 770.052 63.2606 770.052 M63.2606 766.349 Q69.0707 766.349 72.1263 770.955 Q75.205 775.539 75.205 784.289 Q75.205 793.015 72.1263 797.622 Q69.0707 802.205 63.2606 802.205 Q57.4504 802.205 54.3717 797.622 Q51.3162 793.015 51.3162 784.289 Q51.3162 775.539 54.3717 770.955 Q57.4504 766.349 63.2606 766.349 Z" fill="#000000" fill-rule="nonzero" fill-opacity="1" /><path clip-path="url(#clip560)" d="M83.4225 795.654 L88.3067 795.654 L88.3067 801.534 L83.4225 801.534 L83.4225 795.654 Z" fill="#000000" fill-rule="nonzero" fill-opacity="1" /><path clip-path="url(#clip560)" d="M109.071 782.39 Q105.922 782.39 104.071 784.543 Q102.242 786.696 102.242 790.446 Q102.242 794.173 104.071 796.349 Q105.922 798.501 109.071 798.501 Q112.219 798.501 114.047 796.349 Q115.899 794.173 115.899 790.446 Q115.899 786.696 114.047 784.543 Q112.219 782.39 109.071 782.39 M118.353 767.738 L118.353 771.997 Q116.594 771.164 114.788 770.724 Q113.006 770.284 111.246 770.284 Q106.617 770.284 104.163 773.409 Q101.733 776.534 101.385 782.853 Q102.751 780.839 104.811 779.775 Q106.871 778.687 109.348 778.687 Q114.557 778.687 117.566 781.858 Q120.598 785.006 120.598 790.446 Q120.598 795.77 117.45 798.987 Q114.302 802.205 109.071 802.205 Q103.075 802.205 99.9039 797.622 Q96.7326 793.015 96.7326 784.289 Q96.7326 776.094 100.621 771.233 Q104.51 766.349 111.061 766.349 Q112.82 766.349 114.603 766.696 Q116.408 767.043 118.353 767.738 Z" fill="#000000" fill-rule="nonzero" fill-opacity="1" /><path clip-path="url(#clip560)" d="M63.5152 491.528 Q59.9041 491.528 58.0754 495.093 Q56.2699 498.634 56.2699 505.764 Q56.2699 512.87 58.0754 516.435 Q59.9041 519.977 63.5152 519.977 Q67.1494 519.977 68.955 516.435 Q70.7837 512.87 70.7837 505.764 Q70.7837 498.634 68.955 495.093 Q67.1494 491.528 63.5152 491.528 M63.5152 487.824 Q69.3254 487.824 72.3809 492.43 Q75.4596 497.014 75.4596 505.764 Q75.4596 514.491 72.3809 519.097 Q69.3254 523.68 63.5152 523.68 Q57.7051 523.68 54.6264 519.097 Q51.5708 514.491 51.5708 505.764 Q51.5708 497.014 54.6264 492.43 Q57.7051 487.824 63.5152 487.824 Z" fill="#000000" fill-rule="nonzero" fill-opacity="1" /><path clip-path="url(#clip560)" d="M83.6771 517.129 L88.5614 517.129 L88.5614 523.009 L83.6771 523.009 L83.6771 517.129 Z" fill="#000000" fill-rule="nonzero" fill-opacity="1" /><path clip-path="url(#clip560)" d="M108.746 506.597 Q105.413 506.597 103.492 508.379 Q101.594 510.162 101.594 513.287 Q101.594 516.412 103.492 518.194 Q105.413 519.977 108.746 519.977 Q112.08 519.977 114.001 518.194 Q115.922 516.389 115.922 513.287 Q115.922 510.162 114.001 508.379 Q112.103 506.597 108.746 506.597 M104.071 504.606 Q101.061 503.866 99.3715 501.805 Q97.7048 499.745 97.7048 496.782 Q97.7048 492.639 100.645 490.231 Q103.608 487.824 108.746 487.824 Q113.908 487.824 116.848 490.231 Q119.788 492.639 119.788 496.782 Q119.788 499.745 118.098 501.805 Q116.432 503.866 113.445 504.606 Q116.825 505.393 118.7 507.685 Q120.598 509.977 120.598 513.287 Q120.598 518.31 117.52 520.995 Q114.464 523.68 108.746 523.68 Q103.029 523.68 99.9502 520.995 Q96.8947 518.31 96.8947 513.287 Q96.8947 509.977 98.7928 507.685 Q100.691 505.393 104.071 504.606 M102.358 497.222 Q102.358 499.907 104.024 501.412 Q105.714 502.917 108.746 502.917 Q111.756 502.917 113.445 501.412 Q115.158 499.907 115.158 497.222 Q115.158 494.537 113.445 493.032 Q111.756 491.528 108.746 491.528 Q105.714 491.528 104.024 493.032 Q102.358 494.537 102.358 497.222 Z" fill="#000000" fill-rule="nonzero" fill-opacity="1" /><path clip-path="url(#clip560)" d="M54.2328 240.549 L61.8717 240.549 L61.8717 214.184 L53.5616 215.85 L53.5616 211.591 L61.8254 209.924 L66.5013 209.924 L66.5013 240.549 L74.1402 240.549 L74.1402 244.484 L54.2328 244.484 L54.2328 240.549 Z" fill="#000000" fill-rule="nonzero" fill-opacity="1" /><path clip-path="url(#clip560)" d="M83.5845 238.605 L88.4688 238.605 L88.4688 244.484 L83.5845 244.484 L83.5845 238.605 Z" fill="#000000" fill-rule="nonzero" fill-opacity="1" /><path clip-path="url(#clip560)" d="M108.654 213.003 Q105.043 213.003 103.214 216.568 Q101.409 220.109 101.409 227.239 Q101.409 234.345 103.214 237.91 Q105.043 241.452 108.654 241.452 Q112.288 241.452 114.094 237.91 Q115.922 234.345 115.922 227.239 Q115.922 220.109 114.094 216.568 Q112.288 213.003 108.654 213.003 M108.654 209.299 Q114.464 209.299 117.52 213.906 Q120.598 218.489 120.598 227.239 Q120.598 235.966 117.52 240.572 Q114.464 245.156 108.654 245.156 Q102.844 245.156 99.765 240.572 Q96.7095 235.966 96.7095 227.239 Q96.7095 218.489 99.765 213.906 Q102.844 209.299 108.654 209.299 Z" fill="#000000" fill-rule="nonzero" fill-opacity="1" /><polyline clip-path="url(#clip561)" style="stroke:#009af9; stroke-linecap:round; stroke-linejoin:round; stroke-width:4; stroke-opacity:1; fill:none" points="218.754,155.386 220.828,151.02 222.901,146.68 224.975,142.384 227.049,138.147 229.123,133.986 231.197,129.919 233.271,125.961 235.345,122.128 237.419,118.435 239.493,114.896 241.567,111.525 243.641,108.336 245.715,105.342 247.789,102.554 249.862,99.9825 251.936,97.6386 254.01,95.5313 256.084,93.6688 258.158,92.0585 260.232,90.7067 262.306,89.6189 264.38,88.7992 266.454,88.2509 268.528,87.9763 270.602,87.9763 272.676,88.2509 274.75,88.7992 276.823,89.6189 278.897,90.7067 280.971,92.0585 283.045,93.6688 285.119,95.5313 287.193,97.6386 289.267,99.9825 291.341,102.554 293.415,105.342 295.489,108.336 297.563,111.525 299.637,114.896 301.71,118.435 303.784,122.128 305.858,125.961 307.932,129.919 310.006,133.986 312.08,138.147 314.154,142.384 316.228,146.68 318.302,151.02 320.376,155.386 322.45,159.76 324.524,164.126 326.598,168.466 328.671,172.763 330.745,177 332.819,181.16 334.893,185.227 336.967,189.185 339.041,193.018 341.115,196.712 343.189,200.251 345.263,203.621 347.337,206.81 349.411,209.804 351.485,212.593 353.558,215.164 355.632,217.508 357.706,219.615 359.78,221.477 361.854,223.088 363.928,224.439 366.002,225.527 368.076,226.347 370.15,226.895 372.224,227.17 374.298,227.17 376.372,226.895 378.446,226.347 380.519,225.527 382.593,224.439 384.667,223.088 386.741,221.477 388.815,219.615 390.889,217.508 392.963,215.164 395.037,212.593 397.111,209.804 399.185,206.81 401.259,203.621 403.333,200.251 405.407,196.712 407.48,193.018 409.554,189.185 411.628,185.227 413.702,181.16 415.776,177 417.85,172.763 419.924,168.466 421.998,164.126 424.072,159.76 426.146,155.386 428.22,151.02 430.294,146.68 432.367,142.384 434.441,138.147 436.515,133.986 438.589,129.919 440.663,125.961 442.737,122.128 444.811,118.435 446.885,114.896 448.959,111.525 451.033,108.336 453.107,105.342 455.181,102.554 457.255,99.9825 459.328,97.6386 461.402,95.5313 463.476,93.6688 465.55,92.0585 467.624,90.7067 469.698,89.6189 471.772,88.7992 473.846,88.2509 475.92,87.9763 477.994,87.9763 480.068,88.2509 482.142,88.7992 484.216,89.6189 486.289,90.7067 488.363,92.0585 490.437,93.6688 492.511,95.5313 494.585,97.6386 496.659,99.9825 498.733,102.554 500.807,105.342 502.881,108.336 504.955,111.525 507.029,114.896 509.103,118.435 511.176,122.128 513.25,125.961 515.324,129.919 517.398,133.986 519.472,138.147 521.546,142.384 523.62,146.68 525.694,151.02 527.768,155.386 529.842,159.76 531.916,164.126 533.99,168.466 536.064,172.763 538.137,177 540.211,181.16 542.285,185.227 544.359,189.185 546.433,193.018 548.507,196.712 550.581,200.251 552.655,203.621 554.729,206.81 556.803,209.804 558.877,212.593 560.951,215.164 563.024,217.508 565.098,219.615 567.172,221.477 569.246,223.088 571.32,224.439 573.394,225.527 575.468,226.347 577.542,226.895 579.616,227.17 581.69,227.17 583.764,226.895 585.838,226.347 587.912,225.527 589.985,224.439 592.059,223.088 594.133,221.477 596.207,219.615 598.281,217.508 600.355,215.164 602.429,212.593 604.503,209.804 606.577,206.81 608.651,203.621 610.725,200.251 612.799,196.712 614.873,193.018 616.946,189.185 619.02,185.227 621.094,181.16 623.168,177 625.242,172.763 627.316,168.466 629.39,164.126 631.464,159.76 633.538,155.386 635.612,151.02 637.686,146.68 639.76,142.384 641.833,138.147 643.907,133.986 645.981,129.919 648.055,125.961 650.129,122.128 652.203,118.435 654.277,114.896 656.351,111.525 658.425,108.336 660.499,105.342 662.573,102.554 664.647,99.9825 666.721,97.6386 668.794,95.5313 670.868,93.6688 672.942,92.0585 675.016,90.7067 677.09,89.6189 679.164,88.7992 681.238,88.2509 683.312,87.9763 685.386,87.9763 687.46,88.2509 689.534,88.7992 691.608,89.6189 693.681,90.7067 695.755,92.0585 697.829,93.6688 699.903,95.5313 701.977,97.6386 704.051,99.9825 706.125,102.554 708.199,105.342 710.273,108.336 712.347,111.525 714.421,114.896 716.495,118.435 718.569,122.128 720.642,125.961 722.716,129.919 724.79,133.986 726.864,138.147 728.938,142.384 731.012,146.68 733.086,151.02 735.16,155.386 737.234,159.76 739.308,164.126 741.382,168.466 743.456,172.763 745.53,177 747.603,181.16 749.677,185.227 751.751,189.185 753.825,193.018 755.899,196.712 757.973,200.251 760.047,203.621 762.121,206.81 764.195,209.804 766.269,212.593 768.343,215.164 770.417,217.508 772.49,219.615 774.564,221.477 776.638,223.088 778.712,224.439 780.786,225.527 782.86,226.347 784.934,226.895 787.008,227.17 789.082,227.17 791.156,226.895 793.23,226.347 795.304,225.527 797.378,224.439 799.451,223.088 801.525,221.477 803.599,219.615 805.673,217.508 807.747,215.164 809.821,212.593 811.895,209.804 813.969,206.81 816.043,203.621 818.117,200.251 820.191,196.712 822.265,193.018 824.339,189.185 826.412,185.227 828.486,181.16 830.56,177 832.634,172.763 834.708,168.466 836.782,164.126 838.856,159.76 840.93,155.386 843.004,151.02 845.078,146.68 847.152,142.384 849.226,138.147 851.299,133.986 853.373,129.919 855.447,125.961 857.521,122.128 859.595,118.435 861.669,114.896 863.743,111.525 865.817,108.336 867.891,105.342 869.965,102.554 872.039,99.9825 874.113,97.6386 876.187,95.5313 878.26,93.6688 880.334,92.0585 882.408,90.7067 884.482,89.6189 886.556,88.7992 888.63,88.2509 890.704,87.9763 892.778,87.9763 894.852,88.2509 896.926,88.7992 899,89.6189 901.074,90.7067 903.147,92.0585 905.221,93.6688 907.295,95.5313 909.369,97.6386 911.443,99.9825 913.517,102.554 915.591,105.342 917.665,108.336 919.739,111.525 921.813,114.896 923.887,118.435 925.961,122.128 928.035,125.961 930.108,129.919 932.182,133.986 934.256,138.147 936.33,142.384 938.404,146.68 940.478,151.02 942.552,155.386 944.626,159.76 946.7,164.126 948.774,168.466 950.848,172.763 952.922,177 954.996,181.16 957.069,185.227 959.143,189.185 961.217,193.018 963.291,196.712 965.365,200.251 967.439,203.621 969.513,206.81 971.587,209.804 973.661,212.593 975.735,215.164 977.809,217.508 979.883,219.615 981.956,221.478 984.03,223.088 986.104,224.44 988.178,225.53 990.252,226.354 992.326,226.915 994.4,227.222 996.474,227.299 998.548,227.2 1000.62,227.023 1002.7,226.941 1004.78,227.21 1006.86,228.154 1008.94,230.104 1011.03,233.293 1013.13,237.754 1015.24,243.301 1017.36,249.595 1019.5,256.269 1021.66,263.022 1023.83,269.665 1026.01,276.104 1028.22,282.312 1030.44,288.297 1032.67,294.08 1034.93,299.685 1037.2,305.137 1039.49,310.46 1041.8,315.676 1044.13,320.81 1046.47,325.884 1048.84,330.925 1051.22,335.957 1053.63,341.007 1056.05,346.103 1058.5,351.274 1060.97,356.549 1063.46,361.958 1065.97,367.532 1068.5,373.303 1071.06,379.302 1073.64,385.561 1076.24,392.111 1078.87,398.983 1081.52,406.209 1084.19,413.817 1086.9,421.838 1089.63,430.297 1092.38,439.222 1095.17,448.634 1097.98,458.557 1100.82,469.008 1103.69,480.004 1106.59,491.556 1109.52,503.673 1112.48,516.36 1115.47,529.616 1118.5,543.436 1121.56,557.811 1124.66,572.726 1127.79,588.159 1130.96,604.082 1134.16,620.463 1137.41,637.262 1140.69,654.432 1144.01,671.921 1147.38,689.668 1150.79,707.609 1154.24,725.67 1157.74,743.774 1161.28,761.837 1164.87,779.77 1168.51,797.481 1172.2,814.872 1175.94,831.847 1179.74,848.303 1183.59,864.142 1187.5,879.265 1191.47,893.577 1195.5,906.989 1199.6,919.417 1203.76,930.787 1207.98,941.037 1212.28,950.117 1216.65,957.99 1221.09,964.635 1225.6,970.042 1230.2,974.208 1234.88,977.119 1239.63,978.71 1244.47,978.77 1249.38,976.704 1254.34,971.005 1259.31,960.221 1264.28,948.041 1269.24,936.007 1274.17,924.561 1279.08,914.181 1283.97,905.233 1288.86,897.943 1293.73,892.408 1298.59,888.639 1303.45,886.6 1308.31,886.232 1313.17,887.472 1318.03,890.257 1322.89,894.544 1327.75,900.116 1332.61,906.821 1337.47,914.622 1342.33,923.339 1347.19,932.72 1352.04,942.6 1356.9,952.786 1361.76,963.028 1366.62,973.104 1371.48,982.816 1376.34,991.94 1381.2,1000.28 1386.06,1007.66 1390.92,1013.92 1395.78,1018.93 1400.64,1022.56 1405.5,1024.75 1410.36,1025.43 1415.22,1024.59 1420.08,1022.28 1424.94,1018.57 1429.8,1014.06 1434.67,1011.45 1439.64,1020.9 1444.91,1059.5 1448.05,1117.67 1448.88,1160.87 1449.78,1187.38 1450.73,1201.44 1451.71,1207.33 1452.7,1208.46 1453.7,1207.16 1454.7,1204.76 1455.7,1201.93 1456.7,1198.97 1457.69,1195.99 1458.69,1193.04 1459.68,1190.12 1460.66,1187.26 1461.65,1184.47 1462.63,1181.75 1463.62,1179.1 1464.6,1176.53 1465.58,1174.04 1466.55,1171.63 1467.53,1169.3 1468.51,1167.03 1469.49,1164.85 1470.46,1162.73 1471.44,1160.68 1472.41,1158.69 1473.39,1156.75 1474.36,1154.86 1475.34,1153.01 1476.32,1151.2 1477.29,1149.42 1478.27,1147.67 1479.24,1145.95 1480.22,1144.25 1481.2,1142.58 1482.18,1140.94 1483.15,1139.33 1484.13,1137.75 1485.11,1136.2 1486.09,1134.68 1487.06,1133.2 1488.04,1131.76 1489.02,1130.35 1490,1128.99 1490.98,1127.66 1491.95,1126.38 1492.93,1125.15 1493.91,1123.96 1494.89,1122.82 1495.87,1121.73 1496.85,1120.69 1497.83,1119.7 1498.8,1118.76 1499.78,1117.88 1500.76,1117.05 1501.74,1116.28 1502.72,1115.57 1503.7,1114.91 1504.67,1114.31 1505.65,1113.77 1506.63,1113.28 1507.61,1112.86 1508.59,1112.49 1509.57,1112.19 1510.55,1111.94 1511.52,1111.75 1512.5,1111.63 1513.48,1111.56 1514.46,1111.56 1515.44,1111.62 1516.42,1111.74 1517.39,1111.93 1518.37,1112.17 1519.35,1112.48 1520.33,1112.85 1521.31,1113.28 1522.29,1113.76 1523.26,1114.31 1524.24,1114.92 1525.22,1115.58 1526.2,1116.31 1527.18,1117.09 1528.16,1117.92 1529.13,1118.81 1530.11,1119.76 1531.09,1120.76 1532.07,1121.81 1533.05,1122.92 1534.02,1124.07 1535,1125.28 1535.98,1126.53 1536.96,1127.84 1537.94,1129.19 1538.92,1130.58 1539.89,1132.02 1540.87,1133.51 1541.85,1135.03 1542.83,1136.6 1543.81,1138.2 1544.79,1139.84 1545.77,1141.52 1546.74,1143.24 1547.72,1144.98 1548.7,1146.76 1549.68,1148.57 1550.66,1150.41 1551.64,1152.27 1552.61,1154.16 1553.59,1156.07 1554.57,1158.01 1555.55,1159.96 1556.53,1161.94 1557.5,1163.93 1558.48,1165.93 1559.46,1167.95 1560.44,1169.98 1561.42,1172.02 1562.4,1174.07 1563.37,1176.13 1564.35,1178.18 1565.33,1180.25 1566.31,1182.31 1567.29,1184.37 1568.27,1186.43 1569.24,1188.49 1570.22,1190.53 1571.2,1192.57 1572.18,1194.6 1573.16,1196.62 1574.14,1198.63 1575.11,1200.61 1576.09,1202.58 1577.07,1204.54 1578.05,1206.47 1579.03,1208.38 1580.01,1210.27 1580.98,1212.13 1581.96,1213.96 1582.94,1215.76 1583.92,1217.54 1584.9,1219.28 1585.88,1220.99 1586.85,1222.67 1587.83,1224.3 1588.81,1225.91 1589.79,1227.47 1590.77,1228.99 1591.74,1230.47 1592.72,1231.9 1593.7,1233.28 1594.68,1234.63 1595.66,1235.92 1596.64,1237.17 1597.61,1238.38 1598.59,1239.53 1599.57,1240.63 1600.55,1241.67 1601.53,1242.65 1602.51,1243.58 1603.48,1244.46 1604.46,1245.29 1605.44,1246.06 1606.42,1246.78 1607.4,1247.43 1608.37,1248.03 1609.35,1248.57 1610.33,1249.06 1611.31,1249.48 1612.29,1249.84 1613.26,1250.15 1614.24,1250.39 1615.22,1250.61 1616.2,1251.26 1617.19,1256.2 1618.23,1288.3 1619.46,1356.53 1621.01,1412.14 1622.87,1436.19 1624.89,1442.29 1626.95,1442.65 1629.02,1441.57 1631.09,1440.01 1633.17,1438.16 1635.24,1436.05 1637.32,1433.71 1639.39,1431.14 1641.46,1428.35 1643.54,1425.36 1645.61,1422.17 1647.69,1418.8 1649.76,1415.26 1651.83,1411.56 1653.91,1407.73 1655.98,1403.77 1658.05,1399.71 1660.13,1395.55 1662.2,1391.31 1664.28,1387.01 1666.35,1382.67 1668.42,1378.31 1670.5,1373.93 1672.57,1369.57 1674.65,1365.23 1676.72,1360.93 1678.79,1356.69 1680.87,1352.53 1682.94,1348.46 1685.02,1344.51 1687.09,1340.67 1689.16,1336.98 1691.24,1333.44 1693.31,1330.07 1695.39,1326.88 1697.46,1323.89 1699.53,1321.1 1701.61,1318.53 1703.68,1316.18 1705.75,1314.08 1707.83,1312.21 1709.9,1310.6 1711.98,1309.25 1714.05,1308.16 1716.12,1307.34 1718.2,1306.8 1720.27,1306.52 1722.35,1306.52 1724.42,1306.8 1726.49,1307.34 1728.57,1308.16 1730.64,1309.25 1732.72,1310.6 1734.79,1312.21 1736.86,1314.08 1738.94,1316.18 1741.01,1318.53 1743.09,1321.1 1745.16,1323.89 1747.23,1326.88 1749.31,1330.07 1751.38,1333.44 1753.46,1336.98 1755.53,1340.67 1757.6,1344.51 1759.68,1348.46 1761.75,1352.53 1763.82,1356.69 1765.9,1360.93 1767.97,1365.23 1770.05,1369.57 1772.12,1373.93 1774.19,1378.31 1776.27,1382.67 1778.34,1387.01 1780.42,1391.31 1782.49,1395.55 1784.56,1399.71 1786.64,1403.77 1788.71,1407.73 1790.79,1411.56 1792.86,1415.26 1794.93,1418.8 1797.01,1422.17 1799.08,1425.36 1801.16,1428.35 1803.23,1431.14 1805.3,1433.71 1807.38,1436.05 1809.45,1438.16 1811.52,1440.02 1813.6,1441.63 1815.67,1442.99 1817.75,1444.07 1819.82,1444.89 1821.89,1445.44 1823.97,1445.72 1826.04,1445.72 1828.12,1445.44 1830.19,1444.89 1832.26,1444.07 1834.34,1442.99 1836.41,1441.63 1838.49,1440.02 1840.56,1438.16 1842.63,1436.05 1844.71,1433.71 1846.78,1431.14 1848.86,1428.35 1850.93,1425.36 1853,1422.17 1855.08,1418.8 1857.15,1415.26 1859.22,1411.56 1861.3,1407.73 1863.37,1403.77 1865.45,1399.71 1867.52,1395.55 1869.59,1391.31 1871.67,1387.01 1873.74,1382.67 1875.82,1378.31 1877.89,1373.93 1879.96,1369.57 1882.04,1365.23 1884.11,1360.93 1886.19,1356.69 1888.26,1352.53 1890.33,1348.46 1892.41,1344.51 1894.48,1340.67 1896.56,1336.98 1898.63,1333.44 1900.7,1330.07 1902.78,1326.88 1904.85,1323.89 1906.93,1321.1 1909,1318.53 1911.07,1316.18 1913.15,1314.08 1915.22,1312.21 1917.29,1310.6 1919.37,1309.25 1921.44,1308.16 1923.52,1307.34 1925.59,1306.8 1927.66,1306.52 1929.74,1306.52 1931.81,1306.8 1933.89,1307.34 1935.96,1308.16 1938.03,1309.25 1940.11,1310.6 1942.18,1312.21 1944.26,1314.08 1946.33,1316.18 1948.4,1318.53 1950.48,1321.1 1952.55,1323.89 1954.63,1326.88 1956.7,1330.07 1958.77,1333.44 1960.85,1336.98 1962.92,1340.67 1964.99,1344.51 1967.07,1348.46 1969.14,1352.53 1971.22,1356.69 1973.29,1360.93 1975.36,1365.23 1977.44,1369.57 1979.51,1373.93 1981.59,1378.31 1983.66,1382.67 1985.73,1387.01 1987.81,1391.31 1989.88,1395.55 1991.96,1399.71 1994.03,1403.77 1996.1,1407.73 1998.18,1411.56 2000.25,1415.26 2002.33,1418.8 2004.4,1422.17 2006.47,1425.36 2008.55,1428.35 2010.62,1431.14 2012.7,1433.71 2014.77,1436.05 2016.84,1438.16 2018.92,1440.02 2020.99,1441.63 2023.06,1442.99 2025.14,1444.07 2027.21,1444.89 2029.29,1445.44 2031.36,1445.72 2033.43,1445.72 2035.51,1445.44 2037.58,1444.89 2039.66,1444.07 2041.73,1442.99 2043.8,1441.63 2045.88,1440.02 2047.95,1438.16 2050.03,1436.05 2052.1,1433.71 2054.17,1431.14 2056.25,1428.35 2058.32,1425.36 2060.4,1422.17 2062.47,1418.8 2064.54,1415.26 2066.62,1411.56 2068.69,1407.73 2070.76,1403.77 2072.84,1399.71 2074.91,1395.55 2076.99,1391.31 2079.06,1387.01 2081.13,1382.67 2083.21,1378.31 2085.28,1373.93 2087.36,1369.57 2089.43,1365.23 2091.5,1360.93 2093.58,1356.69 2095.65,1352.53 2097.73,1348.46 2099.8,1344.51 2101.87,1340.67 2103.95,1336.98 2106.02,1333.44 2108.1,1330.07 2110.17,1326.88 2112.24,1323.89 2114.32,1321.1 2116.39,1318.53 2118.47,1316.18 2120.54,1314.08 2122.61,1312.21 2124.69,1310.6 2126.76,1309.25 2128.83,1308.16 2130.91,1307.34 2132.98,1306.8 2135.06,1306.52 2137.13,1306.52 2139.2,1306.8 2141.28,1307.34 2143.35,1308.16 2145.43,1309.25 2147.5,1310.6 2149.57,1312.21 2151.65,1314.08 2153.72,1316.18 2155.8,1318.53 2157.87,1321.1 2159.94,1323.89 2162.02,1326.88 2164.09,1330.07 2166.17,1333.44 2168.24,1336.98 2170.31,1340.67 2172.39,1344.51 2174.46,1348.46 2176.53,1352.53 2178.61,1356.69 2180.68,1360.93 2182.76,1365.23 2184.83,1369.57 2186.9,1373.93 2188.98,1378.31 2191.05,1382.67 2193.13,1387.01 2195.2,1391.31 2197.27,1395.55 2199.35,1399.71 2201.42,1403.77 2203.5,1407.73 2205.57,1411.56 2207.64,1415.26 2209.72,1418.8 2211.79,1422.17 2213.87,1425.36 2215.94,1428.35 2218.01,1431.14 2220.09,1433.71 2222.16,1436.05 2224.24,1438.16 2226.31,1440.02 2228.38,1441.63 2230.46,1442.99 2232.53,1444.07 2234.6,1444.89 2236.68,1445.44 2238.75,1445.72 2240.83,1445.72 2242.9,1445.44 2244.97,1444.89 2247.05,1444.07 2249.12,1442.99 2251.2,1441.63 2253.27,1440.02 2255.34,1438.16 2257.42,1436.05 2259.49,1433.71 2261.57,1431.14 2263.64,1428.35 2265.71,1425.36 2267.79,1422.17 2269.86,1418.8 2271.94,1415.26 2274.01,1411.56 2276.08,1407.73 2278.16,1403.77 2280.23,1399.71 2282.3,1395.55 2284.38,1391.31 2286.45,1387.01 2288.53,1382.67 2290.6,1378.31 "/>
<path clip-path="url(#clip560)" d="M2007.5 198.898 L2279.55 198.898 L2279.55 95.2176 L2007.5 95.2176  Z" fill="#ffffff" fill-rule="evenodd" fill-opacity="1"/>
<polyline clip-path="url(#clip560)" style="stroke:#000000; stroke-linecap:round; stroke-linejoin:round; stroke-width:4; stroke-opacity:1; fill:none" points="2007.5,198.898 2279.55,198.898 2279.55,95.2176 2007.5,95.2176 2007.5,198.898 "/>
<polyline clip-path="url(#clip560)" style="stroke:#009af9; stroke-linecap:round; stroke-linejoin:round; stroke-width:4; stroke-opacity:1; fill:none" points="2031.91,147.058 2178.32,147.058 "/>
<path clip-path="url(#clip560)" d="M2216.56 166.745 Q2214.76 171.375 2213.04 172.787 Q2211.33 174.199 2208.46 174.199 L2205.06 174.199 L2205.06 170.634 L2207.56 170.634 Q2209.32 170.634 2210.29 169.8 Q2211.26 168.967 2212.44 165.865 L2213.2 163.921 L2202.72 138.412 L2207.23 138.412 L2215.33 158.689 L2223.44 138.412 L2227.95 138.412 L2216.56 166.745 Z" fill="#000000" fill-rule="nonzero" fill-opacity="1" /><path clip-path="url(#clip560)" d="M2235.24 160.402 L2242.88 160.402 L2242.88 134.037 L2234.57 135.703 L2234.57 131.444 L2242.83 129.778 L2247.51 129.778 L2247.51 160.402 L2255.15 160.402 L2255.15 164.338 L2235.24 164.338 L2235.24 160.402 Z" fill="#000000" fill-rule="nonzero" fill-opacity="1" /></svg>
